%TF.GenerationSoftware,KiCad,Pcbnew,8.0.6*%
%TF.CreationDate,2025-03-30T13:11:56-03:00*%
%TF.ProjectId,ProtoConn,50726f74-6f43-46f6-9e6e-2e6b69636164,1.0*%
%TF.SameCoordinates,Original*%
%TF.FileFunction,Soldermask,Top*%
%TF.FilePolarity,Negative*%
%FSLAX46Y46*%
G04 Gerber Fmt 4.6, Leading zero omitted, Abs format (unit mm)*
G04 Created by KiCad (PCBNEW 8.0.6) date 2025-03-30 13:11:56*
%MOMM*%
%LPD*%
G01*
G04 APERTURE LIST*
G04 Aperture macros list*
%AMRoundRect*
0 Rectangle with rounded corners*
0 $1 Rounding radius*
0 $2 $3 $4 $5 $6 $7 $8 $9 X,Y pos of 4 corners*
0 Add a 4 corners polygon primitive as box body*
4,1,4,$2,$3,$4,$5,$6,$7,$8,$9,$2,$3,0*
0 Add four circle primitives for the rounded corners*
1,1,$1+$1,$2,$3*
1,1,$1+$1,$4,$5*
1,1,$1+$1,$6,$7*
1,1,$1+$1,$8,$9*
0 Add four rect primitives between the rounded corners*
20,1,$1+$1,$2,$3,$4,$5,0*
20,1,$1+$1,$4,$5,$6,$7,0*
20,1,$1+$1,$6,$7,$8,$9,0*
20,1,$1+$1,$8,$9,$2,$3,0*%
G04 Aperture macros list end*
%ADD10C,0.508000*%
%ADD11RoundRect,0.291667X-0.597333X-0.597333X0.597333X-0.597333X0.597333X0.597333X-0.597333X0.597333X0*%
%ADD12RoundRect,0.237500X-0.237500X0.250000X-0.237500X-0.250000X0.237500X-0.250000X0.237500X0.250000X0*%
%ADD13C,2.000000*%
%ADD14R,1.700000X1.700000*%
%ADD15O,1.700000X1.700000*%
%ADD16RoundRect,0.237500X-0.250000X-0.237500X0.250000X-0.237500X0.250000X0.237500X-0.250000X0.237500X0*%
%ADD17O,3.240000X2.720000*%
%ADD18R,1.800000X1.800000*%
%ADD19C,1.800000*%
%ADD20RoundRect,0.237500X0.250000X0.237500X-0.250000X0.237500X-0.250000X-0.237500X0.250000X-0.237500X0*%
%ADD21RoundRect,0.187500X-0.412500X1.062500X-0.412500X-1.062500X0.412500X-1.062500X0.412500X1.062500X0*%
%ADD22RoundRect,0.237500X0.237500X-0.250000X0.237500X0.250000X-0.237500X0.250000X-0.237500X-0.250000X0*%
%ADD23R,1.600000X1.600000*%
%ADD24C,1.600000*%
%ADD25R,4.500000X2.000000*%
%ADD26O,4.000000X2.000000*%
%ADD27O,2.000000X4.000000*%
%ADD28RoundRect,0.237500X0.300000X0.237500X-0.300000X0.237500X-0.300000X-0.237500X0.300000X-0.237500X0*%
%ADD29R,3.000000X3.000000*%
%ADD30C,3.000000*%
%ADD31RoundRect,0.500000X0.500000X-1.500000X0.500000X1.500000X-0.500000X1.500000X-0.500000X-1.500000X0*%
%ADD32RoundRect,0.500000X0.500000X-1.000000X0.500000X1.000000X-0.500000X1.000000X-0.500000X-1.000000X0*%
%ADD33RoundRect,0.500000X-1.500000X-0.500000X1.500000X-0.500000X1.500000X0.500000X-1.500000X0.500000X0*%
%ADD34C,3.600000*%
%ADD35C,5.600000*%
%ADD36R,1.000000X1.000000*%
%ADD37O,1.000000X1.000000*%
%ADD38RoundRect,0.218750X0.256250X-0.218750X0.256250X0.218750X-0.256250X0.218750X-0.256250X-0.218750X0*%
%ADD39R,1.524000X1.524000*%
%ADD40C,1.524000*%
%ADD41C,3.500000*%
%ADD42C,4.000000*%
%ADD43O,3.500000X2.200000*%
%ADD44R,2.500000X1.500000*%
%ADD45O,2.500000X1.500000*%
%ADD46R,2.000000X1.905000*%
%ADD47O,2.000000X1.905000*%
%ADD48C,0.650000*%
%ADD49R,1.450000X0.600000*%
%ADD50R,1.450000X0.300000*%
%ADD51O,2.100000X1.000000*%
%ADD52O,1.600000X1.000000*%
G04 APERTURE END LIST*
D10*
X284734000Y-225298000D02*
X296672000Y-225298000D01*
X296672000Y-231902000D01*
X284734000Y-231902000D01*
X284734000Y-225298000D01*
G36*
X284734000Y-225298000D02*
G01*
X296672000Y-225298000D01*
X296672000Y-231902000D01*
X284734000Y-231902000D01*
X284734000Y-225298000D01*
G37*
D11*
%TO.C,REF\u002A\u002A*%
X193040000Y-83820000D03*
X195580000Y-83820000D03*
X198120000Y-83820000D03*
X200660000Y-83820000D03*
X203200000Y-83820000D03*
%TD*%
%TO.C,REF\u002A\u002A*%
X167640000Y-86360000D03*
X170180000Y-86360000D03*
X172720000Y-86360000D03*
X175260000Y-86360000D03*
X177800000Y-86360000D03*
%TD*%
%TO.C,REF\u002A\u002A*%
X307340000Y-127000000D03*
X307340000Y-129540000D03*
X307340000Y-132080000D03*
X307340000Y-134620000D03*
X307340000Y-137160000D03*
X309880000Y-127000000D03*
X309880000Y-129540000D03*
X309880000Y-132080000D03*
X309880000Y-134620000D03*
X309880000Y-137160000D03*
X312420000Y-127000000D03*
X312420000Y-129540000D03*
X312420000Y-132080000D03*
X312420000Y-134620000D03*
X312420000Y-137160000D03*
X314960000Y-127000000D03*
X314960000Y-129540000D03*
X314960000Y-132080000D03*
X314960000Y-134620000D03*
X314960000Y-137160000D03*
X317500000Y-127000000D03*
X317500000Y-129540000D03*
X317500000Y-132080000D03*
X317500000Y-134620000D03*
X317500000Y-137160000D03*
%TD*%
D12*
%TO.C,R53*%
X234950000Y-175956500D03*
X234950000Y-177781500D03*
%TD*%
D13*
%TO.C,SW13*%
X261366000Y-213106000D03*
X254866000Y-213106000D03*
X261366000Y-208606000D03*
X254866000Y-208606000D03*
%TD*%
D14*
%TO.C,J74*%
X178562000Y-180081000D03*
D15*
X178562000Y-182621000D03*
X178562000Y-185161000D03*
X178562000Y-187701000D03*
X178562000Y-190241000D03*
X178562000Y-192781000D03*
X178562000Y-195321000D03*
X178562000Y-197861000D03*
X178562000Y-200401000D03*
X178562000Y-202941000D03*
X178562000Y-205481000D03*
X178562000Y-208021000D03*
X178562000Y-210561000D03*
X178562000Y-213101000D03*
X178562000Y-215641000D03*
X178562000Y-218181000D03*
X178562000Y-220721000D03*
X178562000Y-223261000D03*
X178562000Y-225801000D03*
X178562000Y-228341000D03*
%TD*%
D11*
%TO.C,REF\u002A\u002A*%
X154940000Y-139700000D03*
X154940000Y-142240000D03*
X154940000Y-144780000D03*
X154940000Y-147320000D03*
X154940000Y-149860000D03*
X154940000Y-152400000D03*
X154940000Y-154940000D03*
X154940000Y-157480000D03*
X154940000Y-160020000D03*
X154940000Y-162560000D03*
X157480000Y-139700000D03*
X157480000Y-142240000D03*
X157480000Y-144780000D03*
X157480000Y-147320000D03*
X157480000Y-149860000D03*
X157480000Y-152400000D03*
X157480000Y-154940000D03*
X157480000Y-157480000D03*
X157480000Y-160020000D03*
X157480000Y-162560000D03*
X160020000Y-139700000D03*
X160020000Y-142240000D03*
X160020000Y-144780000D03*
X160020000Y-147320000D03*
X160020000Y-149860000D03*
X160020000Y-152400000D03*
X160020000Y-154940000D03*
X160020000Y-157480000D03*
X160020000Y-160020000D03*
X160020000Y-162560000D03*
X162560000Y-139700000D03*
X162560000Y-142240000D03*
X162560000Y-144780000D03*
X162560000Y-147320000D03*
X162560000Y-149860000D03*
X162560000Y-152400000D03*
X162560000Y-154940000D03*
X162560000Y-157480000D03*
X162560000Y-160020000D03*
X162560000Y-162560000D03*
X165100000Y-139700000D03*
X165100000Y-142240000D03*
X165100000Y-144780000D03*
X165100000Y-147320000D03*
X165100000Y-149860000D03*
X165100000Y-152400000D03*
X165100000Y-154940000D03*
X165100000Y-157480000D03*
X165100000Y-160020000D03*
X165100000Y-162560000D03*
X167640000Y-139700000D03*
X167640000Y-142240000D03*
X167640000Y-144780000D03*
X167640000Y-147320000D03*
X167640000Y-149860000D03*
X167640000Y-152400000D03*
X167640000Y-154940000D03*
X167640000Y-157480000D03*
X167640000Y-160020000D03*
X167640000Y-162560000D03*
X170180000Y-139700000D03*
X170180000Y-142240000D03*
X170180000Y-144780000D03*
X170180000Y-147320000D03*
X170180000Y-149860000D03*
X170180000Y-152400000D03*
X170180000Y-154940000D03*
X170180000Y-157480000D03*
X170180000Y-160020000D03*
X170180000Y-162560000D03*
X172720000Y-139700000D03*
X172720000Y-142240000D03*
X172720000Y-144780000D03*
X172720000Y-147320000D03*
X172720000Y-149860000D03*
X172720000Y-152400000D03*
X172720000Y-154940000D03*
X172720000Y-157480000D03*
X172720000Y-160020000D03*
X172720000Y-162560000D03*
X175260000Y-139700000D03*
X175260000Y-142240000D03*
X175260000Y-144780000D03*
X175260000Y-147320000D03*
X175260000Y-149860000D03*
X175260000Y-152400000D03*
X175260000Y-154940000D03*
X175260000Y-157480000D03*
X175260000Y-160020000D03*
X175260000Y-162560000D03*
X177800000Y-139700000D03*
X177800000Y-142240000D03*
X177800000Y-144780000D03*
X177800000Y-147320000D03*
X177800000Y-149860000D03*
X177800000Y-152400000D03*
X177800000Y-154940000D03*
X177800000Y-157480000D03*
X177800000Y-160020000D03*
X177800000Y-162560000D03*
%TD*%
D14*
%TO.C,J76*%
X137922000Y-76708000D03*
D15*
X137922000Y-79248000D03*
%TD*%
D16*
%TO.C,R2*%
X303379500Y-221488000D03*
X305204500Y-221488000D03*
%TD*%
D12*
%TO.C,R36*%
X157480000Y-77931000D03*
X157480000Y-79756000D03*
%TD*%
D14*
%TO.C,J43*%
X212344000Y-72898000D03*
D15*
X209804000Y-72898000D03*
%TD*%
D17*
%TO.C,RV1*%
X317751000Y-61748000D03*
X317751000Y-71348000D03*
D18*
X310251000Y-64048000D03*
D19*
X310251000Y-66548000D03*
X310251000Y-69048000D03*
%TD*%
D14*
%TO.C,JP6*%
X183134000Y-66040000D03*
D15*
X183134000Y-63500000D03*
%TD*%
D11*
%TO.C,REF\u002A\u002A*%
X256540000Y-114300000D03*
X256540000Y-116840000D03*
X256540000Y-119380000D03*
X256540000Y-121920000D03*
X256540000Y-124460000D03*
X256540000Y-127000000D03*
X256540000Y-129540000D03*
X256540000Y-132080000D03*
X256540000Y-134620000D03*
X256540000Y-137160000D03*
X259080000Y-114300000D03*
X259080000Y-116840000D03*
X259080000Y-119380000D03*
X259080000Y-121920000D03*
X259080000Y-124460000D03*
X259080000Y-127000000D03*
X259080000Y-129540000D03*
X259080000Y-132080000D03*
X259080000Y-134620000D03*
X259080000Y-137160000D03*
X261620000Y-114300000D03*
X261620000Y-116840000D03*
X261620000Y-119380000D03*
X261620000Y-121920000D03*
X261620000Y-124460000D03*
X261620000Y-127000000D03*
X261620000Y-129540000D03*
X261620000Y-132080000D03*
X261620000Y-134620000D03*
X261620000Y-137160000D03*
X264160000Y-114300000D03*
X264160000Y-116840000D03*
X264160000Y-119380000D03*
X264160000Y-121920000D03*
X264160000Y-124460000D03*
X264160000Y-127000000D03*
X264160000Y-129540000D03*
X264160000Y-132080000D03*
X264160000Y-134620000D03*
X264160000Y-137160000D03*
X266700000Y-114300000D03*
X266700000Y-116840000D03*
X266700000Y-119380000D03*
X266700000Y-121920000D03*
X266700000Y-124460000D03*
X266700000Y-127000000D03*
X266700000Y-129540000D03*
X266700000Y-132080000D03*
X266700000Y-134620000D03*
X266700000Y-137160000D03*
X269240000Y-114300000D03*
X269240000Y-116840000D03*
X269240000Y-119380000D03*
X269240000Y-121920000D03*
X269240000Y-124460000D03*
X269240000Y-127000000D03*
X269240000Y-129540000D03*
X269240000Y-132080000D03*
X269240000Y-134620000D03*
X269240000Y-137160000D03*
X271780000Y-114300000D03*
X271780000Y-116840000D03*
X271780000Y-119380000D03*
X271780000Y-121920000D03*
X271780000Y-124460000D03*
X271780000Y-127000000D03*
X271780000Y-129540000D03*
X271780000Y-132080000D03*
X271780000Y-134620000D03*
X271780000Y-137160000D03*
X274320000Y-114300000D03*
X274320000Y-116840000D03*
X274320000Y-119380000D03*
X274320000Y-121920000D03*
X274320000Y-124460000D03*
X274320000Y-127000000D03*
X274320000Y-129540000D03*
X274320000Y-132080000D03*
X274320000Y-134620000D03*
X274320000Y-137160000D03*
X276860000Y-114300000D03*
X276860000Y-116840000D03*
X276860000Y-119380000D03*
X276860000Y-121920000D03*
X276860000Y-124460000D03*
X276860000Y-127000000D03*
X276860000Y-129540000D03*
X276860000Y-132080000D03*
X276860000Y-134620000D03*
X276860000Y-137160000D03*
X279400000Y-114300000D03*
X279400000Y-116840000D03*
X279400000Y-119380000D03*
X279400000Y-121920000D03*
X279400000Y-124460000D03*
X279400000Y-127000000D03*
X279400000Y-129540000D03*
X279400000Y-132080000D03*
X279400000Y-134620000D03*
X279400000Y-137160000D03*
%TD*%
D20*
%TO.C,R34*%
X301752000Y-191262000D03*
X299927000Y-191262000D03*
%TD*%
D14*
%TO.C,J94*%
X277876000Y-210566000D03*
D15*
X277876000Y-213106000D03*
X277876000Y-215646000D03*
X277876000Y-218186000D03*
X277876000Y-220726000D03*
X277876000Y-223266000D03*
X277876000Y-225806000D03*
X277876000Y-228346000D03*
%TD*%
D14*
%TO.C,J30*%
X278222000Y-60702000D03*
D15*
X275682000Y-60702000D03*
%TD*%
D14*
%TO.C,J64*%
X160782000Y-175001000D03*
D15*
X160782000Y-177541000D03*
X160782000Y-180081000D03*
X160782000Y-182621000D03*
X160782000Y-185161000D03*
X160782000Y-187701000D03*
X160782000Y-190241000D03*
X160782000Y-192781000D03*
X160782000Y-195321000D03*
X160782000Y-197861000D03*
X160782000Y-200401000D03*
X160782000Y-202941000D03*
%TD*%
D13*
%TO.C,J9*%
X238338000Y-50986000D03*
X238338000Y-57986000D03*
D21*
X240538000Y-55436000D03*
X240538000Y-52436000D03*
X236138000Y-60436000D03*
X240538000Y-59436000D03*
%TD*%
D11*
%TO.C,REF\u002A\u002A*%
X154940000Y-88900000D03*
X154940000Y-91440000D03*
X154940000Y-93980000D03*
X154940000Y-96520000D03*
X154940000Y-99060000D03*
X154940000Y-101600000D03*
X154940000Y-104140000D03*
X154940000Y-106680000D03*
X154940000Y-109220000D03*
X154940000Y-111760000D03*
X157480000Y-88900000D03*
X157480000Y-91440000D03*
X157480000Y-93980000D03*
X157480000Y-96520000D03*
X157480000Y-99060000D03*
X157480000Y-101600000D03*
X157480000Y-104140000D03*
X157480000Y-106680000D03*
X157480000Y-109220000D03*
X157480000Y-111760000D03*
X160020000Y-88900000D03*
X160020000Y-91440000D03*
X160020000Y-93980000D03*
X160020000Y-96520000D03*
X160020000Y-99060000D03*
X160020000Y-101600000D03*
X160020000Y-104140000D03*
X160020000Y-106680000D03*
X160020000Y-109220000D03*
X160020000Y-111760000D03*
X162560000Y-88900000D03*
X162560000Y-91440000D03*
X162560000Y-93980000D03*
X162560000Y-96520000D03*
X162560000Y-99060000D03*
X162560000Y-101600000D03*
X162560000Y-104140000D03*
X162560000Y-106680000D03*
X162560000Y-109220000D03*
X162560000Y-111760000D03*
X165100000Y-88900000D03*
X165100000Y-91440000D03*
X165100000Y-93980000D03*
X165100000Y-96520000D03*
X165100000Y-99060000D03*
X165100000Y-101600000D03*
X165100000Y-104140000D03*
X165100000Y-106680000D03*
X165100000Y-109220000D03*
X165100000Y-111760000D03*
X167640000Y-88900000D03*
X167640000Y-91440000D03*
X167640000Y-93980000D03*
X167640000Y-96520000D03*
X167640000Y-99060000D03*
X167640000Y-101600000D03*
X167640000Y-104140000D03*
X167640000Y-106680000D03*
X167640000Y-109220000D03*
X167640000Y-111760000D03*
X170180000Y-88900000D03*
X170180000Y-91440000D03*
X170180000Y-93980000D03*
X170180000Y-96520000D03*
X170180000Y-99060000D03*
X170180000Y-101600000D03*
X170180000Y-104140000D03*
X170180000Y-106680000D03*
X170180000Y-109220000D03*
X170180000Y-111760000D03*
X172720000Y-88900000D03*
X172720000Y-91440000D03*
X172720000Y-93980000D03*
X172720000Y-96520000D03*
X172720000Y-99060000D03*
X172720000Y-101600000D03*
X172720000Y-104140000D03*
X172720000Y-106680000D03*
X172720000Y-109220000D03*
X172720000Y-111760000D03*
X175260000Y-88900000D03*
X175260000Y-91440000D03*
X175260000Y-93980000D03*
X175260000Y-96520000D03*
X175260000Y-99060000D03*
X175260000Y-101600000D03*
X175260000Y-104140000D03*
X175260000Y-106680000D03*
X175260000Y-109220000D03*
X175260000Y-111760000D03*
X177800000Y-88900000D03*
X177800000Y-91440000D03*
X177800000Y-93980000D03*
X177800000Y-96520000D03*
X177800000Y-99060000D03*
X177800000Y-101600000D03*
X177800000Y-104140000D03*
X177800000Y-106680000D03*
X177800000Y-109220000D03*
X177800000Y-111760000D03*
%TD*%
D22*
%TO.C,R1*%
X305816000Y-168656000D03*
X305816000Y-166831000D03*
%TD*%
D14*
%TO.C,J24*%
X154940000Y-69088000D03*
D15*
X157480000Y-69088000D03*
X160020000Y-69088000D03*
X162560000Y-69088000D03*
X165100000Y-69088000D03*
X167640000Y-69088000D03*
X170180000Y-69088000D03*
X172720000Y-69088000D03*
X175260000Y-69088000D03*
%TD*%
D14*
%TO.C,J48*%
X188468000Y-72898000D03*
D15*
X185928000Y-72898000D03*
%TD*%
D13*
%TO.C,SW8*%
X248412000Y-202946000D03*
X241912000Y-202946000D03*
X248412000Y-198446000D03*
X241912000Y-198446000D03*
%TD*%
D14*
%TO.C,JP12*%
X127762000Y-80264000D03*
D15*
X127762000Y-77724000D03*
%TD*%
D23*
%TO.C,C5*%
X292446000Y-77720000D03*
D24*
X289946000Y-77720000D03*
%TD*%
D14*
%TO.C,J32*%
X274320000Y-85090000D03*
D15*
X274320000Y-82550000D03*
X276860000Y-85090000D03*
X276860000Y-82550000D03*
X279400000Y-85090000D03*
X279400000Y-82550000D03*
X281940000Y-85090000D03*
X281940000Y-82550000D03*
%TD*%
D12*
%TO.C,R79*%
X254000000Y-77169000D03*
X254000000Y-78994000D03*
%TD*%
D11*
%TO.C,REF\u002A\u002A*%
X218440000Y-83820000D03*
X220980000Y-83820000D03*
X223520000Y-83820000D03*
X226060000Y-83820000D03*
X228600000Y-83820000D03*
%TD*%
D14*
%TO.C,J22*%
X148590000Y-65278000D03*
D15*
X148590000Y-67818000D03*
X148590000Y-70358000D03*
X148590000Y-72898000D03*
%TD*%
D20*
%TO.C,R31*%
X301705000Y-198882000D03*
X299880000Y-198882000D03*
%TD*%
D11*
%TO.C,REF\u002A\u002A*%
X180340000Y-83820000D03*
X182880000Y-83820000D03*
X185420000Y-83820000D03*
X187960000Y-83820000D03*
X190500000Y-83820000D03*
%TD*%
D14*
%TO.C,J70*%
X192532000Y-205481000D03*
D15*
X192532000Y-208021000D03*
X192532000Y-210561000D03*
X192532000Y-213101000D03*
X192532000Y-215641000D03*
X192532000Y-218181000D03*
X192532000Y-220721000D03*
X192532000Y-223261000D03*
X192532000Y-225801000D03*
X192532000Y-228341000D03*
%TD*%
D12*
%TO.C,R81*%
X248920000Y-77169000D03*
X248920000Y-78994000D03*
%TD*%
D13*
%TO.C,SW10*%
X248666000Y-223266000D03*
X242166000Y-223266000D03*
X248666000Y-218766000D03*
X242166000Y-218766000D03*
%TD*%
D20*
%TO.C,R16*%
X302651500Y-176784000D03*
X300826500Y-176784000D03*
%TD*%
D12*
%TO.C,R75*%
X241300000Y-77185000D03*
X241300000Y-79010000D03*
%TD*%
D14*
%TO.C,JP5*%
X143256000Y-58928000D03*
D15*
X143256000Y-56388000D03*
%TD*%
D12*
%TO.C,R56*%
X227330000Y-175956500D03*
X227330000Y-177781500D03*
%TD*%
D14*
%TO.C,J44*%
X228600000Y-72898000D03*
D15*
X226060000Y-72898000D03*
%TD*%
D11*
%TO.C,REF\u002A\u002A*%
X281940000Y-114300000D03*
X281940000Y-116840000D03*
X281940000Y-119380000D03*
X281940000Y-121920000D03*
X281940000Y-124460000D03*
X281940000Y-127000000D03*
X281940000Y-129540000D03*
X281940000Y-132080000D03*
X281940000Y-134620000D03*
X281940000Y-137160000D03*
X284480000Y-114300000D03*
X284480000Y-116840000D03*
X284480000Y-119380000D03*
X284480000Y-121920000D03*
X284480000Y-124460000D03*
X284480000Y-127000000D03*
X284480000Y-129540000D03*
X284480000Y-132080000D03*
X284480000Y-134620000D03*
X284480000Y-137160000D03*
X287020000Y-114300000D03*
X287020000Y-116840000D03*
X287020000Y-119380000D03*
X287020000Y-121920000D03*
X287020000Y-124460000D03*
X287020000Y-127000000D03*
X287020000Y-129540000D03*
X287020000Y-132080000D03*
X287020000Y-134620000D03*
X287020000Y-137160000D03*
X289560000Y-114300000D03*
X289560000Y-116840000D03*
X289560000Y-119380000D03*
X289560000Y-121920000D03*
X289560000Y-124460000D03*
X289560000Y-127000000D03*
X289560000Y-129540000D03*
X289560000Y-132080000D03*
X289560000Y-134620000D03*
X289560000Y-137160000D03*
X292100000Y-114300000D03*
X292100000Y-116840000D03*
X292100000Y-119380000D03*
X292100000Y-121920000D03*
X292100000Y-124460000D03*
X292100000Y-127000000D03*
X292100000Y-129540000D03*
X292100000Y-132080000D03*
X292100000Y-134620000D03*
X292100000Y-137160000D03*
X294640000Y-114300000D03*
X294640000Y-116840000D03*
X294640000Y-119380000D03*
X294640000Y-121920000D03*
X294640000Y-124460000D03*
X294640000Y-127000000D03*
X294640000Y-129540000D03*
X294640000Y-132080000D03*
X294640000Y-134620000D03*
X294640000Y-137160000D03*
X297180000Y-114300000D03*
X297180000Y-116840000D03*
X297180000Y-119380000D03*
X297180000Y-121920000D03*
X297180000Y-124460000D03*
X297180000Y-127000000D03*
X297180000Y-129540000D03*
X297180000Y-132080000D03*
X297180000Y-134620000D03*
X297180000Y-137160000D03*
X299720000Y-114300000D03*
X299720000Y-116840000D03*
X299720000Y-119380000D03*
X299720000Y-121920000D03*
X299720000Y-124460000D03*
X299720000Y-127000000D03*
X299720000Y-129540000D03*
X299720000Y-132080000D03*
X299720000Y-134620000D03*
X299720000Y-137160000D03*
X302260000Y-114300000D03*
X302260000Y-116840000D03*
X302260000Y-119380000D03*
X302260000Y-121920000D03*
X302260000Y-124460000D03*
X302260000Y-127000000D03*
X302260000Y-129540000D03*
X302260000Y-132080000D03*
X302260000Y-134620000D03*
X302260000Y-137160000D03*
X304800000Y-114300000D03*
X304800000Y-116840000D03*
X304800000Y-119380000D03*
X304800000Y-121920000D03*
X304800000Y-124460000D03*
X304800000Y-127000000D03*
X304800000Y-129540000D03*
X304800000Y-132080000D03*
X304800000Y-134620000D03*
X304800000Y-137160000D03*
%TD*%
D25*
%TO.C,J26*%
X294224000Y-62838000D03*
D26*
X294224000Y-56638000D03*
D27*
X289524000Y-59638000D03*
%TD*%
D14*
%TO.C,J98*%
X304800000Y-76454000D03*
D15*
X307340000Y-76454000D03*
X309880000Y-76454000D03*
%TD*%
D14*
%TO.C,JP13*%
X130302000Y-197358000D03*
D15*
X127762000Y-197358000D03*
%TD*%
D11*
%TO.C,REF\u002A\u002A*%
X205740000Y-88900000D03*
X205740000Y-91440000D03*
X205740000Y-93980000D03*
X205740000Y-96520000D03*
X205740000Y-99060000D03*
X205740000Y-101600000D03*
X205740000Y-104140000D03*
X205740000Y-106680000D03*
X205740000Y-109220000D03*
X205740000Y-111760000D03*
X208280000Y-88900000D03*
X208280000Y-91440000D03*
X208280000Y-93980000D03*
X208280000Y-96520000D03*
X208280000Y-99060000D03*
X208280000Y-101600000D03*
X208280000Y-104140000D03*
X208280000Y-106680000D03*
X208280000Y-109220000D03*
X208280000Y-111760000D03*
X210820000Y-88900000D03*
X210820000Y-91440000D03*
X210820000Y-93980000D03*
X210820000Y-96520000D03*
X210820000Y-99060000D03*
X210820000Y-101600000D03*
X210820000Y-104140000D03*
X210820000Y-106680000D03*
X210820000Y-109220000D03*
X210820000Y-111760000D03*
X213360000Y-88900000D03*
X213360000Y-91440000D03*
X213360000Y-93980000D03*
X213360000Y-96520000D03*
X213360000Y-99060000D03*
X213360000Y-101600000D03*
X213360000Y-104140000D03*
X213360000Y-106680000D03*
X213360000Y-109220000D03*
X213360000Y-111760000D03*
X215900000Y-88900000D03*
X215900000Y-91440000D03*
X215900000Y-93980000D03*
X215900000Y-96520000D03*
X215900000Y-99060000D03*
X215900000Y-101600000D03*
X215900000Y-104140000D03*
X215900000Y-106680000D03*
X215900000Y-109220000D03*
X215900000Y-111760000D03*
X218440000Y-88900000D03*
X218440000Y-91440000D03*
X218440000Y-93980000D03*
X218440000Y-96520000D03*
X218440000Y-99060000D03*
X218440000Y-101600000D03*
X218440000Y-104140000D03*
X218440000Y-106680000D03*
X218440000Y-109220000D03*
X218440000Y-111760000D03*
X220980000Y-88900000D03*
X220980000Y-91440000D03*
X220980000Y-93980000D03*
X220980000Y-96520000D03*
X220980000Y-99060000D03*
X220980000Y-101600000D03*
X220980000Y-104140000D03*
X220980000Y-106680000D03*
X220980000Y-109220000D03*
X220980000Y-111760000D03*
X223520000Y-88900000D03*
X223520000Y-91440000D03*
X223520000Y-93980000D03*
X223520000Y-96520000D03*
X223520000Y-99060000D03*
X223520000Y-101600000D03*
X223520000Y-104140000D03*
X223520000Y-106680000D03*
X223520000Y-109220000D03*
X223520000Y-111760000D03*
X226060000Y-88900000D03*
X226060000Y-91440000D03*
X226060000Y-93980000D03*
X226060000Y-96520000D03*
X226060000Y-99060000D03*
X226060000Y-101600000D03*
X226060000Y-104140000D03*
X226060000Y-106680000D03*
X226060000Y-109220000D03*
X226060000Y-111760000D03*
X228600000Y-88900000D03*
X228600000Y-91440000D03*
X228600000Y-93980000D03*
X228600000Y-96520000D03*
X228600000Y-99060000D03*
X228600000Y-101600000D03*
X228600000Y-104140000D03*
X228600000Y-106680000D03*
X228600000Y-109220000D03*
X228600000Y-111760000D03*
%TD*%
D28*
%TO.C,C7*%
X292787500Y-73910000D03*
X291062500Y-73910000D03*
%TD*%
D11*
%TO.C,REF\u002A\u002A*%
X180340000Y-81280000D03*
X182880000Y-81280000D03*
X185420000Y-81280000D03*
X187960000Y-81280000D03*
X190500000Y-81280000D03*
%TD*%
%TO.C,REF\u002A\u002A*%
X307340000Y-101600000D03*
X307340000Y-104140000D03*
X307340000Y-106680000D03*
X307340000Y-109220000D03*
X307340000Y-111760000D03*
X309880000Y-101600000D03*
X309880000Y-104140000D03*
X309880000Y-106680000D03*
X309880000Y-109220000D03*
X309880000Y-111760000D03*
X312420000Y-101600000D03*
X312420000Y-104140000D03*
X312420000Y-106680000D03*
X312420000Y-109220000D03*
X312420000Y-111760000D03*
X314960000Y-101600000D03*
X314960000Y-104140000D03*
X314960000Y-106680000D03*
X314960000Y-109220000D03*
X314960000Y-111760000D03*
X317500000Y-101600000D03*
X317500000Y-104140000D03*
X317500000Y-106680000D03*
X317500000Y-109220000D03*
X317500000Y-111760000D03*
%TD*%
D14*
%TO.C,J89*%
X221234000Y-192786000D03*
D15*
X221234000Y-195326000D03*
X221234000Y-197866000D03*
X221234000Y-200406000D03*
X221234000Y-202946000D03*
X221234000Y-205486000D03*
X221234000Y-208026000D03*
X221234000Y-210566000D03*
%TD*%
D20*
%TO.C,R19*%
X300619500Y-215493600D03*
X298794500Y-215493600D03*
%TD*%
D11*
%TO.C,REF\u002A\u002A*%
X180340000Y-86360000D03*
X182880000Y-86360000D03*
X185420000Y-86360000D03*
X187960000Y-86360000D03*
X190500000Y-86360000D03*
%TD*%
D29*
%TO.C,J95*%
X319532000Y-78994000D03*
D30*
X319532000Y-84074000D03*
%TD*%
D11*
%TO.C,REF\u002A\u002A*%
X218440000Y-81280000D03*
X220980000Y-81280000D03*
X223520000Y-81280000D03*
X226060000Y-81280000D03*
X228600000Y-81280000D03*
%TD*%
D12*
%TO.C,R77*%
X236220000Y-77185000D03*
X236220000Y-79010000D03*
%TD*%
D13*
%TO.C,J39*%
X186690000Y-50164000D03*
X195326000Y-50164000D03*
D31*
X187308000Y-57102000D03*
D32*
X191008000Y-57702000D03*
D31*
X194808000Y-57102000D03*
D33*
X191008000Y-54102000D03*
%TD*%
D11*
%TO.C,REF\u002A\u002A*%
X154940000Y-86360000D03*
X157480000Y-86360000D03*
X160020000Y-86360000D03*
X162560000Y-86360000D03*
X165100000Y-86360000D03*
%TD*%
D34*
%TO.C,H3*%
X314960000Y-55880000D03*
D35*
X314960000Y-55880000D03*
%TD*%
D11*
%TO.C,REF\u002A\u002A*%
X218440000Y-78740000D03*
X220980000Y-78740000D03*
X223520000Y-78740000D03*
X226060000Y-78740000D03*
X228600000Y-78740000D03*
%TD*%
D14*
%TO.C,J97*%
X312420000Y-85090000D03*
D15*
X309880000Y-85090000D03*
X307340000Y-85090000D03*
X304800000Y-85090000D03*
%TD*%
D14*
%TO.C,J84*%
X148844000Y-152908000D03*
D15*
X151384000Y-152908000D03*
X148844000Y-155448000D03*
X151384000Y-155448000D03*
X148844000Y-157988000D03*
X151384000Y-157988000D03*
X148844000Y-160528000D03*
X151384000Y-160528000D03*
X148844000Y-163068000D03*
X151384000Y-163068000D03*
%TD*%
D14*
%TO.C,J87*%
X213614000Y-192786000D03*
D15*
X213614000Y-195326000D03*
X213614000Y-197866000D03*
X213614000Y-200406000D03*
X213614000Y-202946000D03*
X213614000Y-205486000D03*
X213614000Y-208026000D03*
X213614000Y-210566000D03*
%TD*%
D29*
%TO.C,J28*%
X275682000Y-53082000D03*
D30*
X280762000Y-53082000D03*
%TD*%
D36*
%TO.C,J82*%
X127762000Y-176530000D03*
D37*
X129032000Y-176530000D03*
X127762000Y-177800000D03*
X129032000Y-177800000D03*
X127762000Y-179070000D03*
X129032000Y-179070000D03*
X127762000Y-180340000D03*
X129032000Y-180340000D03*
X127762000Y-181610000D03*
X129032000Y-181610000D03*
%TD*%
D11*
%TO.C,REF\u002A\u002A*%
X180340000Y-88900000D03*
X180340000Y-91440000D03*
X180340000Y-93980000D03*
X180340000Y-96520000D03*
X180340000Y-99060000D03*
X180340000Y-101600000D03*
X180340000Y-104140000D03*
X180340000Y-106680000D03*
X180340000Y-109220000D03*
X180340000Y-111760000D03*
X182880000Y-88900000D03*
X182880000Y-91440000D03*
X182880000Y-93980000D03*
X182880000Y-96520000D03*
X182880000Y-99060000D03*
X182880000Y-101600000D03*
X182880000Y-104140000D03*
X182880000Y-106680000D03*
X182880000Y-109220000D03*
X182880000Y-111760000D03*
X185420000Y-88900000D03*
X185420000Y-91440000D03*
X185420000Y-93980000D03*
X185420000Y-96520000D03*
X185420000Y-99060000D03*
X185420000Y-101600000D03*
X185420000Y-104140000D03*
X185420000Y-106680000D03*
X185420000Y-109220000D03*
X185420000Y-111760000D03*
X187960000Y-88900000D03*
X187960000Y-91440000D03*
X187960000Y-93980000D03*
X187960000Y-96520000D03*
X187960000Y-99060000D03*
X187960000Y-101600000D03*
X187960000Y-104140000D03*
X187960000Y-106680000D03*
X187960000Y-109220000D03*
X187960000Y-111760000D03*
X190500000Y-88900000D03*
X190500000Y-91440000D03*
X190500000Y-93980000D03*
X190500000Y-96520000D03*
X190500000Y-99060000D03*
X190500000Y-101600000D03*
X190500000Y-104140000D03*
X190500000Y-106680000D03*
X190500000Y-109220000D03*
X190500000Y-111760000D03*
X193040000Y-88900000D03*
X193040000Y-91440000D03*
X193040000Y-93980000D03*
X193040000Y-96520000D03*
X193040000Y-99060000D03*
X193040000Y-101600000D03*
X193040000Y-104140000D03*
X193040000Y-106680000D03*
X193040000Y-109220000D03*
X193040000Y-111760000D03*
X195580000Y-88900000D03*
X195580000Y-91440000D03*
X195580000Y-93980000D03*
X195580000Y-96520000D03*
X195580000Y-99060000D03*
X195580000Y-101600000D03*
X195580000Y-104140000D03*
X195580000Y-106680000D03*
X195580000Y-109220000D03*
X195580000Y-111760000D03*
X198120000Y-88900000D03*
X198120000Y-91440000D03*
X198120000Y-93980000D03*
X198120000Y-96520000D03*
X198120000Y-99060000D03*
X198120000Y-101600000D03*
X198120000Y-104140000D03*
X198120000Y-106680000D03*
X198120000Y-109220000D03*
X198120000Y-111760000D03*
X200660000Y-88900000D03*
X200660000Y-91440000D03*
X200660000Y-93980000D03*
X200660000Y-96520000D03*
X200660000Y-99060000D03*
X200660000Y-101600000D03*
X200660000Y-104140000D03*
X200660000Y-106680000D03*
X200660000Y-109220000D03*
X200660000Y-111760000D03*
X203200000Y-88900000D03*
X203200000Y-91440000D03*
X203200000Y-93980000D03*
X203200000Y-96520000D03*
X203200000Y-99060000D03*
X203200000Y-101600000D03*
X203200000Y-104140000D03*
X203200000Y-106680000D03*
X203200000Y-109220000D03*
X203200000Y-111760000D03*
%TD*%
%TO.C,REF\u002A\u002A*%
X307340000Y-88900000D03*
X307340000Y-91440000D03*
X307340000Y-93980000D03*
X307340000Y-96520000D03*
X307340000Y-99060000D03*
X309880000Y-88900000D03*
X309880000Y-91440000D03*
X309880000Y-93980000D03*
X309880000Y-96520000D03*
X309880000Y-99060000D03*
X312420000Y-88900000D03*
X312420000Y-91440000D03*
X312420000Y-93980000D03*
X312420000Y-96520000D03*
X312420000Y-99060000D03*
X314960000Y-88900000D03*
X314960000Y-91440000D03*
X314960000Y-93980000D03*
X314960000Y-96520000D03*
X314960000Y-99060000D03*
X317500000Y-88900000D03*
X317500000Y-91440000D03*
X317500000Y-93980000D03*
X317500000Y-96520000D03*
X317500000Y-99060000D03*
%TD*%
D14*
%TO.C,J34*%
X299720000Y-85090000D03*
D15*
X297180000Y-85090000D03*
X294640000Y-85090000D03*
X292100000Y-85090000D03*
X289560000Y-85090000D03*
X287020000Y-85090000D03*
%TD*%
D14*
%TO.C,J18*%
X305816000Y-201422000D03*
D15*
X305816000Y-198882000D03*
X305816000Y-196342000D03*
X305816000Y-193802000D03*
X305816000Y-191262000D03*
X305816000Y-188722000D03*
%TD*%
D34*
%TO.C,H4*%
X130810000Y-226568000D03*
D35*
X130810000Y-226568000D03*
%TD*%
D14*
%TO.C,J73*%
X198628000Y-175001000D03*
D15*
X198628000Y-177541000D03*
X198628000Y-180081000D03*
X198628000Y-182621000D03*
X198628000Y-185161000D03*
X198628000Y-187701000D03*
X198628000Y-190241000D03*
X198628000Y-192781000D03*
X198628000Y-195321000D03*
X198628000Y-197861000D03*
X198628000Y-200401000D03*
X198628000Y-202941000D03*
%TD*%
D20*
%TO.C,R18*%
X300619500Y-212953600D03*
X298794500Y-212953600D03*
%TD*%
D38*
%TO.C,D4*%
X237490000Y-173859000D03*
X237490000Y-172284000D03*
%TD*%
D14*
%TO.C,J14*%
X296418000Y-179324000D03*
D15*
X296418000Y-176784000D03*
X296418000Y-174244000D03*
X296418000Y-171704000D03*
%TD*%
D38*
%TO.C,D1*%
X285750000Y-68631000D03*
X285750000Y-67056000D03*
%TD*%
D14*
%TO.C,J4*%
X264160000Y-85090000D03*
D15*
X261620000Y-85090000D03*
X259080000Y-85090000D03*
%TD*%
D38*
%TO.C,D9*%
X224790000Y-173859000D03*
X224790000Y-172284000D03*
%TD*%
D14*
%TO.C,J38*%
X265938000Y-167640000D03*
D15*
X263398000Y-167640000D03*
X260858000Y-167640000D03*
%TD*%
D14*
%TO.C,J65*%
X160782000Y-205481000D03*
D15*
X160782000Y-208021000D03*
X160782000Y-210561000D03*
X160782000Y-213101000D03*
X160782000Y-215641000D03*
X160782000Y-218181000D03*
X160782000Y-220721000D03*
X160782000Y-223261000D03*
X160782000Y-225801000D03*
X160782000Y-228341000D03*
%TD*%
D38*
%TO.C,D6*%
X232410000Y-173859000D03*
X232410000Y-172284000D03*
%TD*%
D20*
%TO.C,R17*%
X302651500Y-174244000D03*
X300826500Y-174244000D03*
%TD*%
D14*
%TO.C,J85*%
X143764000Y-145288000D03*
D15*
X143764000Y-147828000D03*
X143764000Y-150368000D03*
X143764000Y-152908000D03*
X143764000Y-155448000D03*
X143764000Y-157988000D03*
X143764000Y-160528000D03*
X143764000Y-163068000D03*
X143764000Y-165608000D03*
X143764000Y-168148000D03*
%TD*%
D12*
%TO.C,R78*%
X233680000Y-77185000D03*
X233680000Y-79010000D03*
%TD*%
%TO.C,R76*%
X238760000Y-77185000D03*
X238760000Y-79010000D03*
%TD*%
D39*
%TO.C,J1*%
X310160500Y-179454000D03*
D40*
X310160500Y-176954000D03*
X310160500Y-174954000D03*
X310160500Y-172454000D03*
D41*
X312870500Y-182524000D03*
X312870500Y-169384000D03*
%TD*%
D28*
%TO.C,C3*%
X292787500Y-71878000D03*
X291062500Y-71878000D03*
%TD*%
D14*
%TO.C,J21*%
X296418000Y-201422000D03*
D15*
X296418000Y-198882000D03*
X296418000Y-196342000D03*
X296418000Y-193802000D03*
X296418000Y-191262000D03*
X296418000Y-188722000D03*
%TD*%
D13*
%TO.C,SW6*%
X235712000Y-223266000D03*
X229212000Y-223266000D03*
X235712000Y-218766000D03*
X229212000Y-218766000D03*
%TD*%
%TO.C,SW7*%
X248412000Y-192786000D03*
X241912000Y-192786000D03*
X248412000Y-188286000D03*
X241912000Y-188286000D03*
%TD*%
D14*
%TO.C,J63*%
X154432000Y-175001000D03*
D15*
X154432000Y-177541000D03*
X154432000Y-180081000D03*
X154432000Y-182621000D03*
X154432000Y-185161000D03*
X154432000Y-187701000D03*
X154432000Y-190241000D03*
X154432000Y-192781000D03*
X154432000Y-195321000D03*
X154432000Y-197861000D03*
X154432000Y-200401000D03*
X154432000Y-202941000D03*
%TD*%
D14*
%TO.C,J51*%
X214884000Y-175260000D03*
D15*
X214884000Y-177800000D03*
%TD*%
D11*
%TO.C,REF\u002A\u002A*%
X180340000Y-114300000D03*
X180340000Y-116840000D03*
X180340000Y-119380000D03*
X180340000Y-121920000D03*
X180340000Y-124460000D03*
X180340000Y-127000000D03*
X180340000Y-129540000D03*
X180340000Y-132080000D03*
X180340000Y-134620000D03*
X180340000Y-137160000D03*
X182880000Y-114300000D03*
X182880000Y-116840000D03*
X182880000Y-119380000D03*
X182880000Y-121920000D03*
X182880000Y-124460000D03*
X182880000Y-127000000D03*
X182880000Y-129540000D03*
X182880000Y-132080000D03*
X182880000Y-134620000D03*
X182880000Y-137160000D03*
X185420000Y-114300000D03*
X185420000Y-116840000D03*
X185420000Y-119380000D03*
X185420000Y-121920000D03*
X185420000Y-124460000D03*
X185420000Y-127000000D03*
X185420000Y-129540000D03*
X185420000Y-132080000D03*
X185420000Y-134620000D03*
X185420000Y-137160000D03*
X187960000Y-114300000D03*
X187960000Y-116840000D03*
X187960000Y-119380000D03*
X187960000Y-121920000D03*
X187960000Y-124460000D03*
X187960000Y-127000000D03*
X187960000Y-129540000D03*
X187960000Y-132080000D03*
X187960000Y-134620000D03*
X187960000Y-137160000D03*
X190500000Y-114300000D03*
X190500000Y-116840000D03*
X190500000Y-119380000D03*
X190500000Y-121920000D03*
X190500000Y-124460000D03*
X190500000Y-127000000D03*
X190500000Y-129540000D03*
X190500000Y-132080000D03*
X190500000Y-134620000D03*
X190500000Y-137160000D03*
X193040000Y-114300000D03*
X193040000Y-116840000D03*
X193040000Y-119380000D03*
X193040000Y-121920000D03*
X193040000Y-124460000D03*
X193040000Y-127000000D03*
X193040000Y-129540000D03*
X193040000Y-132080000D03*
X193040000Y-134620000D03*
X193040000Y-137160000D03*
X195580000Y-114300000D03*
X195580000Y-116840000D03*
X195580000Y-119380000D03*
X195580000Y-121920000D03*
X195580000Y-124460000D03*
X195580000Y-127000000D03*
X195580000Y-129540000D03*
X195580000Y-132080000D03*
X195580000Y-134620000D03*
X195580000Y-137160000D03*
X198120000Y-114300000D03*
X198120000Y-116840000D03*
X198120000Y-119380000D03*
X198120000Y-121920000D03*
X198120000Y-124460000D03*
X198120000Y-127000000D03*
X198120000Y-129540000D03*
X198120000Y-132080000D03*
X198120000Y-134620000D03*
X198120000Y-137160000D03*
X200660000Y-114300000D03*
X200660000Y-116840000D03*
X200660000Y-119380000D03*
X200660000Y-121920000D03*
X200660000Y-124460000D03*
X200660000Y-127000000D03*
X200660000Y-129540000D03*
X200660000Y-132080000D03*
X200660000Y-134620000D03*
X200660000Y-137160000D03*
X203200000Y-114300000D03*
X203200000Y-116840000D03*
X203200000Y-119380000D03*
X203200000Y-121920000D03*
X203200000Y-124460000D03*
X203200000Y-127000000D03*
X203200000Y-129540000D03*
X203200000Y-132080000D03*
X203200000Y-134620000D03*
X203200000Y-137160000D03*
%TD*%
D12*
%TO.C,R80*%
X251460000Y-77169000D03*
X251460000Y-78994000D03*
%TD*%
D13*
%TO.C,J40*%
X202946000Y-50164000D03*
X211582000Y-50164000D03*
D31*
X203564000Y-57102000D03*
D32*
X207264000Y-57702000D03*
D31*
X211064000Y-57102000D03*
D33*
X207264000Y-54102000D03*
%TD*%
D38*
%TO.C,D10*%
X222250000Y-173859000D03*
X222250000Y-172284000D03*
%TD*%
D14*
%TO.C,J42*%
X196088000Y-72898000D03*
D15*
X193548000Y-72898000D03*
%TD*%
D14*
%TO.C,JP14*%
X210820000Y-187452000D03*
D15*
X210820000Y-184912000D03*
%TD*%
D30*
%TO.C,J3*%
X265544000Y-63468000D03*
X249314000Y-63468000D03*
X265544000Y-69818000D03*
X249314000Y-69818000D03*
X265544000Y-57118000D03*
X249314000Y-57118000D03*
%TD*%
D38*
%TO.C,D3*%
X240030000Y-173859000D03*
X240030000Y-172284000D03*
%TD*%
D20*
%TO.C,R35*%
X150415000Y-61618500D03*
X148590000Y-61618500D03*
%TD*%
D42*
%TO.C,J23*%
X175260000Y-56388000D03*
X150260000Y-56388000D03*
D23*
X157220000Y-56688000D03*
D24*
X159990000Y-56688000D03*
X162760000Y-56688000D03*
X165530000Y-56688000D03*
X168300000Y-56688000D03*
X158605000Y-53848000D03*
X161375000Y-53848000D03*
X164145000Y-53848000D03*
X166915000Y-53848000D03*
%TD*%
D11*
%TO.C,REF\u002A\u002A*%
X256540000Y-139700000D03*
X256540000Y-142240000D03*
X256540000Y-144780000D03*
X256540000Y-147320000D03*
X256540000Y-149860000D03*
X256540000Y-152400000D03*
X256540000Y-154940000D03*
X256540000Y-157480000D03*
X256540000Y-160020000D03*
X256540000Y-162560000D03*
X259080000Y-139700000D03*
X259080000Y-142240000D03*
X259080000Y-144780000D03*
X259080000Y-147320000D03*
X259080000Y-149860000D03*
X259080000Y-152400000D03*
X259080000Y-154940000D03*
X259080000Y-157480000D03*
X259080000Y-160020000D03*
X259080000Y-162560000D03*
X261620000Y-139700000D03*
X261620000Y-142240000D03*
X261620000Y-144780000D03*
X261620000Y-147320000D03*
X261620000Y-149860000D03*
X261620000Y-152400000D03*
X261620000Y-154940000D03*
X261620000Y-157480000D03*
X261620000Y-160020000D03*
X261620000Y-162560000D03*
X264160000Y-139700000D03*
X264160000Y-142240000D03*
X264160000Y-144780000D03*
X264160000Y-147320000D03*
X264160000Y-149860000D03*
X264160000Y-152400000D03*
X264160000Y-154940000D03*
X264160000Y-157480000D03*
X264160000Y-160020000D03*
X264160000Y-162560000D03*
X266700000Y-139700000D03*
X266700000Y-142240000D03*
X266700000Y-144780000D03*
X266700000Y-147320000D03*
X266700000Y-149860000D03*
X266700000Y-152400000D03*
X266700000Y-154940000D03*
X266700000Y-157480000D03*
X266700000Y-160020000D03*
X266700000Y-162560000D03*
X269240000Y-139700000D03*
X269240000Y-142240000D03*
X269240000Y-144780000D03*
X269240000Y-147320000D03*
X269240000Y-149860000D03*
X269240000Y-152400000D03*
X269240000Y-154940000D03*
X269240000Y-157480000D03*
X269240000Y-160020000D03*
X269240000Y-162560000D03*
X271780000Y-139700000D03*
X271780000Y-142240000D03*
X271780000Y-144780000D03*
X271780000Y-147320000D03*
X271780000Y-149860000D03*
X271780000Y-152400000D03*
X271780000Y-154940000D03*
X271780000Y-157480000D03*
X271780000Y-160020000D03*
X271780000Y-162560000D03*
X274320000Y-139700000D03*
X274320000Y-142240000D03*
X274320000Y-144780000D03*
X274320000Y-147320000D03*
X274320000Y-149860000D03*
X274320000Y-152400000D03*
X274320000Y-154940000D03*
X274320000Y-157480000D03*
X274320000Y-160020000D03*
X274320000Y-162560000D03*
X276860000Y-139700000D03*
X276860000Y-142240000D03*
X276860000Y-144780000D03*
X276860000Y-147320000D03*
X276860000Y-149860000D03*
X276860000Y-152400000D03*
X276860000Y-154940000D03*
X276860000Y-157480000D03*
X276860000Y-160020000D03*
X276860000Y-162560000D03*
X279400000Y-139700000D03*
X279400000Y-142240000D03*
X279400000Y-144780000D03*
X279400000Y-147320000D03*
X279400000Y-149860000D03*
X279400000Y-152400000D03*
X279400000Y-154940000D03*
X279400000Y-157480000D03*
X279400000Y-160020000D03*
X279400000Y-162560000D03*
%TD*%
D14*
%TO.C,J53*%
X241300000Y-67787000D03*
D15*
X238760000Y-67787000D03*
X236220000Y-67787000D03*
X233680000Y-67787000D03*
%TD*%
D11*
%TO.C,REF\u002A\u002A*%
X180340000Y-139700000D03*
X180340000Y-142240000D03*
X180340000Y-144780000D03*
X180340000Y-147320000D03*
X180340000Y-149860000D03*
X180340000Y-152400000D03*
X180340000Y-154940000D03*
X180340000Y-157480000D03*
X180340000Y-160020000D03*
X180340000Y-162560000D03*
X182880000Y-139700000D03*
X182880000Y-142240000D03*
X182880000Y-144780000D03*
X182880000Y-147320000D03*
X182880000Y-149860000D03*
X182880000Y-152400000D03*
X182880000Y-154940000D03*
X182880000Y-157480000D03*
X182880000Y-160020000D03*
X182880000Y-162560000D03*
X185420000Y-139700000D03*
X185420000Y-142240000D03*
X185420000Y-144780000D03*
X185420000Y-147320000D03*
X185420000Y-149860000D03*
X185420000Y-152400000D03*
X185420000Y-154940000D03*
X185420000Y-157480000D03*
X185420000Y-160020000D03*
X185420000Y-162560000D03*
X187960000Y-139700000D03*
X187960000Y-142240000D03*
X187960000Y-144780000D03*
X187960000Y-147320000D03*
X187960000Y-149860000D03*
X187960000Y-152400000D03*
X187960000Y-154940000D03*
X187960000Y-157480000D03*
X187960000Y-160020000D03*
X187960000Y-162560000D03*
X190500000Y-139700000D03*
X190500000Y-142240000D03*
X190500000Y-144780000D03*
X190500000Y-147320000D03*
X190500000Y-149860000D03*
X190500000Y-152400000D03*
X190500000Y-154940000D03*
X190500000Y-157480000D03*
X190500000Y-160020000D03*
X190500000Y-162560000D03*
X193040000Y-139700000D03*
X193040000Y-142240000D03*
X193040000Y-144780000D03*
X193040000Y-147320000D03*
X193040000Y-149860000D03*
X193040000Y-152400000D03*
X193040000Y-154940000D03*
X193040000Y-157480000D03*
X193040000Y-160020000D03*
X193040000Y-162560000D03*
X195580000Y-139700000D03*
X195580000Y-142240000D03*
X195580000Y-144780000D03*
X195580000Y-147320000D03*
X195580000Y-149860000D03*
X195580000Y-152400000D03*
X195580000Y-154940000D03*
X195580000Y-157480000D03*
X195580000Y-160020000D03*
X195580000Y-162560000D03*
X198120000Y-139700000D03*
X198120000Y-142240000D03*
X198120000Y-144780000D03*
X198120000Y-147320000D03*
X198120000Y-149860000D03*
X198120000Y-152400000D03*
X198120000Y-154940000D03*
X198120000Y-157480000D03*
X198120000Y-160020000D03*
X198120000Y-162560000D03*
X200660000Y-139700000D03*
X200660000Y-142240000D03*
X200660000Y-144780000D03*
X200660000Y-147320000D03*
X200660000Y-149860000D03*
X200660000Y-152400000D03*
X200660000Y-154940000D03*
X200660000Y-157480000D03*
X200660000Y-160020000D03*
X200660000Y-162560000D03*
X203200000Y-139700000D03*
X203200000Y-142240000D03*
X203200000Y-144780000D03*
X203200000Y-147320000D03*
X203200000Y-149860000D03*
X203200000Y-152400000D03*
X203200000Y-154940000D03*
X203200000Y-157480000D03*
X203200000Y-160020000D03*
X203200000Y-162560000D03*
%TD*%
%TO.C,REF\u002A\u002A*%
X307340000Y-139700000D03*
X307340000Y-142240000D03*
X307340000Y-144780000D03*
X307340000Y-147320000D03*
X307340000Y-149860000D03*
X309880000Y-139700000D03*
X309880000Y-142240000D03*
X309880000Y-144780000D03*
X309880000Y-147320000D03*
X309880000Y-149860000D03*
X312420000Y-139700000D03*
X312420000Y-142240000D03*
X312420000Y-144780000D03*
X312420000Y-147320000D03*
X312420000Y-149860000D03*
X314960000Y-139700000D03*
X314960000Y-142240000D03*
X314960000Y-144780000D03*
X314960000Y-147320000D03*
X314960000Y-149860000D03*
X317500000Y-139700000D03*
X317500000Y-142240000D03*
X317500000Y-144780000D03*
X317500000Y-147320000D03*
X317500000Y-149860000D03*
%TD*%
D13*
%TO.C,SW9*%
X248412000Y-213106000D03*
X241912000Y-213106000D03*
X248412000Y-208606000D03*
X241912000Y-208606000D03*
%TD*%
D14*
%TO.C,J49*%
X204724000Y-72898000D03*
D15*
X202184000Y-72898000D03*
%TD*%
D14*
%TO.C,J52*%
X240030000Y-167640000D03*
D15*
X237490000Y-167640000D03*
X234950000Y-167640000D03*
X232410000Y-167640000D03*
X229870000Y-167640000D03*
X227330000Y-167640000D03*
X224790000Y-167640000D03*
X222250000Y-167640000D03*
%TD*%
D23*
%TO.C,C1*%
X292446000Y-67814000D03*
D24*
X289946000Y-67814000D03*
%TD*%
D11*
%TO.C,REF\u002A\u002A*%
X205740000Y-81280000D03*
X208280000Y-81280000D03*
X210820000Y-81280000D03*
X213360000Y-81280000D03*
X215900000Y-81280000D03*
%TD*%
%TO.C,REF\u002A\u002A*%
X205740000Y-139700000D03*
X205740000Y-142240000D03*
X205740000Y-144780000D03*
X205740000Y-147320000D03*
X205740000Y-149860000D03*
X205740000Y-152400000D03*
X205740000Y-154940000D03*
X205740000Y-157480000D03*
X205740000Y-160020000D03*
X205740000Y-162560000D03*
X208280000Y-139700000D03*
X208280000Y-142240000D03*
X208280000Y-144780000D03*
X208280000Y-147320000D03*
X208280000Y-149860000D03*
X208280000Y-152400000D03*
X208280000Y-154940000D03*
X208280000Y-157480000D03*
X208280000Y-160020000D03*
X208280000Y-162560000D03*
X210820000Y-139700000D03*
X210820000Y-142240000D03*
X210820000Y-144780000D03*
X210820000Y-147320000D03*
X210820000Y-149860000D03*
X210820000Y-152400000D03*
X210820000Y-154940000D03*
X210820000Y-157480000D03*
X210820000Y-160020000D03*
X210820000Y-162560000D03*
X213360000Y-139700000D03*
X213360000Y-142240000D03*
X213360000Y-144780000D03*
X213360000Y-147320000D03*
X213360000Y-149860000D03*
X213360000Y-152400000D03*
X213360000Y-154940000D03*
X213360000Y-157480000D03*
X213360000Y-160020000D03*
X213360000Y-162560000D03*
X215900000Y-139700000D03*
X215900000Y-142240000D03*
X215900000Y-144780000D03*
X215900000Y-147320000D03*
X215900000Y-149860000D03*
X215900000Y-152400000D03*
X215900000Y-154940000D03*
X215900000Y-157480000D03*
X215900000Y-160020000D03*
X215900000Y-162560000D03*
X218440000Y-139700000D03*
X218440000Y-142240000D03*
X218440000Y-144780000D03*
X218440000Y-147320000D03*
X218440000Y-149860000D03*
X218440000Y-152400000D03*
X218440000Y-154940000D03*
X218440000Y-157480000D03*
X218440000Y-160020000D03*
X218440000Y-162560000D03*
X220980000Y-139700000D03*
X220980000Y-142240000D03*
X220980000Y-144780000D03*
X220980000Y-147320000D03*
X220980000Y-149860000D03*
X220980000Y-152400000D03*
X220980000Y-154940000D03*
X220980000Y-157480000D03*
X220980000Y-160020000D03*
X220980000Y-162560000D03*
X223520000Y-139700000D03*
X223520000Y-142240000D03*
X223520000Y-144780000D03*
X223520000Y-147320000D03*
X223520000Y-149860000D03*
X223520000Y-152400000D03*
X223520000Y-154940000D03*
X223520000Y-157480000D03*
X223520000Y-160020000D03*
X223520000Y-162560000D03*
X226060000Y-139700000D03*
X226060000Y-142240000D03*
X226060000Y-144780000D03*
X226060000Y-147320000D03*
X226060000Y-149860000D03*
X226060000Y-152400000D03*
X226060000Y-154940000D03*
X226060000Y-157480000D03*
X226060000Y-160020000D03*
X226060000Y-162560000D03*
X228600000Y-139700000D03*
X228600000Y-142240000D03*
X228600000Y-144780000D03*
X228600000Y-147320000D03*
X228600000Y-149860000D03*
X228600000Y-152400000D03*
X228600000Y-154940000D03*
X228600000Y-157480000D03*
X228600000Y-160020000D03*
X228600000Y-162560000D03*
%TD*%
D12*
%TO.C,R50*%
X220980000Y-65993000D03*
X220980000Y-67818000D03*
%TD*%
D13*
%TO.C,SW3*%
X235712000Y-192786000D03*
X229212000Y-192786000D03*
X235712000Y-188286000D03*
X229212000Y-188286000D03*
%TD*%
D43*
%TO.C,SW1*%
X276860000Y-65968000D03*
X276860000Y-74168000D03*
D44*
X276860000Y-68068000D03*
D45*
X276860000Y-70068000D03*
X276860000Y-72068000D03*
%TD*%
D22*
%TO.C,R57*%
X224790000Y-177781500D03*
X224790000Y-175956500D03*
%TD*%
%TO.C,R40*%
X263411000Y-172870500D03*
X263411000Y-171045500D03*
%TD*%
D11*
%TO.C,REF\u002A\u002A*%
X231140000Y-114300000D03*
X231140000Y-116840000D03*
X231140000Y-119380000D03*
X231140000Y-121920000D03*
X231140000Y-124460000D03*
X231140000Y-127000000D03*
X231140000Y-129540000D03*
X231140000Y-132080000D03*
X231140000Y-134620000D03*
X231140000Y-137160000D03*
X233680000Y-114300000D03*
X233680000Y-116840000D03*
X233680000Y-119380000D03*
X233680000Y-121920000D03*
X233680000Y-124460000D03*
X233680000Y-127000000D03*
X233680000Y-129540000D03*
X233680000Y-132080000D03*
X233680000Y-134620000D03*
X233680000Y-137160000D03*
X236220000Y-114300000D03*
X236220000Y-116840000D03*
X236220000Y-119380000D03*
X236220000Y-121920000D03*
X236220000Y-124460000D03*
X236220000Y-127000000D03*
X236220000Y-129540000D03*
X236220000Y-132080000D03*
X236220000Y-134620000D03*
X236220000Y-137160000D03*
X238760000Y-114300000D03*
X238760000Y-116840000D03*
X238760000Y-119380000D03*
X238760000Y-121920000D03*
X238760000Y-124460000D03*
X238760000Y-127000000D03*
X238760000Y-129540000D03*
X238760000Y-132080000D03*
X238760000Y-134620000D03*
X238760000Y-137160000D03*
X241300000Y-114300000D03*
X241300000Y-116840000D03*
X241300000Y-119380000D03*
X241300000Y-121920000D03*
X241300000Y-124460000D03*
X241300000Y-127000000D03*
X241300000Y-129540000D03*
X241300000Y-132080000D03*
X241300000Y-134620000D03*
X241300000Y-137160000D03*
X243840000Y-114300000D03*
X243840000Y-116840000D03*
X243840000Y-119380000D03*
X243840000Y-121920000D03*
X243840000Y-124460000D03*
X243840000Y-127000000D03*
X243840000Y-129540000D03*
X243840000Y-132080000D03*
X243840000Y-134620000D03*
X243840000Y-137160000D03*
X246380000Y-114300000D03*
X246380000Y-116840000D03*
X246380000Y-119380000D03*
X246380000Y-121920000D03*
X246380000Y-124460000D03*
X246380000Y-127000000D03*
X246380000Y-129540000D03*
X246380000Y-132080000D03*
X246380000Y-134620000D03*
X246380000Y-137160000D03*
X248920000Y-114300000D03*
X248920000Y-116840000D03*
X248920000Y-119380000D03*
X248920000Y-121920000D03*
X248920000Y-124460000D03*
X248920000Y-127000000D03*
X248920000Y-129540000D03*
X248920000Y-132080000D03*
X248920000Y-134620000D03*
X248920000Y-137160000D03*
X251460000Y-114300000D03*
X251460000Y-116840000D03*
X251460000Y-119380000D03*
X251460000Y-121920000D03*
X251460000Y-124460000D03*
X251460000Y-127000000D03*
X251460000Y-129540000D03*
X251460000Y-132080000D03*
X251460000Y-134620000D03*
X251460000Y-137160000D03*
X254000000Y-114300000D03*
X254000000Y-116840000D03*
X254000000Y-119380000D03*
X254000000Y-121920000D03*
X254000000Y-124460000D03*
X254000000Y-127000000D03*
X254000000Y-129540000D03*
X254000000Y-132080000D03*
X254000000Y-134620000D03*
X254000000Y-137160000D03*
%TD*%
D38*
%TO.C,D8*%
X227330000Y-173859000D03*
X227330000Y-172284000D03*
%TD*%
D11*
%TO.C,REF\u002A\u002A*%
X218440000Y-86360000D03*
X220980000Y-86360000D03*
X223520000Y-86360000D03*
X226060000Y-86360000D03*
X228600000Y-86360000D03*
%TD*%
D14*
%TO.C,J90*%
X221234000Y-215646000D03*
D15*
X221234000Y-218186000D03*
X221234000Y-220726000D03*
X221234000Y-223266000D03*
X221234000Y-225806000D03*
X221234000Y-228346000D03*
%TD*%
D14*
%TO.C,J69*%
X192532000Y-175001000D03*
D15*
X192532000Y-177541000D03*
X192532000Y-180081000D03*
X192532000Y-182621000D03*
X192532000Y-185161000D03*
X192532000Y-187701000D03*
X192532000Y-190241000D03*
X192532000Y-192781000D03*
X192532000Y-195321000D03*
X192532000Y-197861000D03*
X192532000Y-200401000D03*
X192532000Y-202941000D03*
%TD*%
D11*
%TO.C,REF\u002A\u002A*%
X205740000Y-114300000D03*
X205740000Y-116840000D03*
X205740000Y-119380000D03*
X205740000Y-121920000D03*
X205740000Y-124460000D03*
X205740000Y-127000000D03*
X205740000Y-129540000D03*
X205740000Y-132080000D03*
X205740000Y-134620000D03*
X205740000Y-137160000D03*
X208280000Y-114300000D03*
X208280000Y-116840000D03*
X208280000Y-119380000D03*
X208280000Y-121920000D03*
X208280000Y-124460000D03*
X208280000Y-127000000D03*
X208280000Y-129540000D03*
X208280000Y-132080000D03*
X208280000Y-134620000D03*
X208280000Y-137160000D03*
X210820000Y-114300000D03*
X210820000Y-116840000D03*
X210820000Y-119380000D03*
X210820000Y-121920000D03*
X210820000Y-124460000D03*
X210820000Y-127000000D03*
X210820000Y-129540000D03*
X210820000Y-132080000D03*
X210820000Y-134620000D03*
X210820000Y-137160000D03*
X213360000Y-114300000D03*
X213360000Y-116840000D03*
X213360000Y-119380000D03*
X213360000Y-121920000D03*
X213360000Y-124460000D03*
X213360000Y-127000000D03*
X213360000Y-129540000D03*
X213360000Y-132080000D03*
X213360000Y-134620000D03*
X213360000Y-137160000D03*
X215900000Y-114300000D03*
X215900000Y-116840000D03*
X215900000Y-119380000D03*
X215900000Y-121920000D03*
X215900000Y-124460000D03*
X215900000Y-127000000D03*
X215900000Y-129540000D03*
X215900000Y-132080000D03*
X215900000Y-134620000D03*
X215900000Y-137160000D03*
X218440000Y-114300000D03*
X218440000Y-116840000D03*
X218440000Y-119380000D03*
X218440000Y-121920000D03*
X218440000Y-124460000D03*
X218440000Y-127000000D03*
X218440000Y-129540000D03*
X218440000Y-132080000D03*
X218440000Y-134620000D03*
X218440000Y-137160000D03*
X220980000Y-114300000D03*
X220980000Y-116840000D03*
X220980000Y-119380000D03*
X220980000Y-121920000D03*
X220980000Y-124460000D03*
X220980000Y-127000000D03*
X220980000Y-129540000D03*
X220980000Y-132080000D03*
X220980000Y-134620000D03*
X220980000Y-137160000D03*
X223520000Y-114300000D03*
X223520000Y-116840000D03*
X223520000Y-119380000D03*
X223520000Y-121920000D03*
X223520000Y-124460000D03*
X223520000Y-127000000D03*
X223520000Y-129540000D03*
X223520000Y-132080000D03*
X223520000Y-134620000D03*
X223520000Y-137160000D03*
X226060000Y-114300000D03*
X226060000Y-116840000D03*
X226060000Y-119380000D03*
X226060000Y-121920000D03*
X226060000Y-124460000D03*
X226060000Y-127000000D03*
X226060000Y-129540000D03*
X226060000Y-132080000D03*
X226060000Y-134620000D03*
X226060000Y-137160000D03*
X228600000Y-114300000D03*
X228600000Y-116840000D03*
X228600000Y-119380000D03*
X228600000Y-121920000D03*
X228600000Y-124460000D03*
X228600000Y-127000000D03*
X228600000Y-129540000D03*
X228600000Y-132080000D03*
X228600000Y-134620000D03*
X228600000Y-137160000D03*
%TD*%
D14*
%TO.C,J36*%
X275082000Y-170434000D03*
D15*
X275082000Y-167894000D03*
%TD*%
D13*
%TO.C,SW5*%
X235712000Y-213106000D03*
X229212000Y-213106000D03*
X235712000Y-208606000D03*
X229212000Y-208606000D03*
%TD*%
D14*
%TO.C,J100*%
X137668000Y-202438000D03*
D15*
X137668000Y-204978000D03*
X137668000Y-207518000D03*
X137668000Y-210058000D03*
X137668000Y-212598000D03*
X137668000Y-215138000D03*
%TD*%
D14*
%TO.C,J75*%
X181102000Y-180081000D03*
D15*
X181102000Y-182621000D03*
X181102000Y-185161000D03*
X181102000Y-187701000D03*
X181102000Y-190241000D03*
X181102000Y-192781000D03*
X181102000Y-195321000D03*
X181102000Y-197861000D03*
X181102000Y-200401000D03*
X181102000Y-202941000D03*
X181102000Y-205481000D03*
X181102000Y-208021000D03*
X181102000Y-210561000D03*
X181102000Y-213101000D03*
X181102000Y-215641000D03*
X181102000Y-218181000D03*
X181102000Y-220721000D03*
X181102000Y-223261000D03*
X181102000Y-225801000D03*
X181102000Y-228341000D03*
%TD*%
D22*
%TO.C,R39*%
X265938000Y-172870500D03*
X265938000Y-171045500D03*
%TD*%
D14*
%TO.C,J62*%
X154432000Y-205481000D03*
D15*
X154432000Y-208021000D03*
X154432000Y-210561000D03*
X154432000Y-213101000D03*
X154432000Y-215641000D03*
X154432000Y-218181000D03*
X154432000Y-220721000D03*
X154432000Y-223261000D03*
X154432000Y-225801000D03*
X154432000Y-228341000D03*
%TD*%
D11*
%TO.C,REF\u002A\u002A*%
X307340000Y-152400000D03*
X307340000Y-154940000D03*
X307340000Y-157480000D03*
X307340000Y-160020000D03*
X307340000Y-162560000D03*
X309880000Y-152400000D03*
X309880000Y-154940000D03*
X309880000Y-157480000D03*
X309880000Y-160020000D03*
X309880000Y-162560000D03*
X312420000Y-152400000D03*
X312420000Y-154940000D03*
X312420000Y-157480000D03*
X312420000Y-160020000D03*
X312420000Y-162560000D03*
X314960000Y-152400000D03*
X314960000Y-154940000D03*
X314960000Y-157480000D03*
X314960000Y-160020000D03*
X314960000Y-162560000D03*
X317500000Y-152400000D03*
X317500000Y-154940000D03*
X317500000Y-157480000D03*
X317500000Y-160020000D03*
X317500000Y-162560000D03*
%TD*%
%TO.C,REF\u002A\u002A*%
X231140000Y-139700000D03*
X231140000Y-142240000D03*
X231140000Y-144780000D03*
X231140000Y-147320000D03*
X231140000Y-149860000D03*
X231140000Y-152400000D03*
X231140000Y-154940000D03*
X231140000Y-157480000D03*
X231140000Y-160020000D03*
X231140000Y-162560000D03*
X233680000Y-139700000D03*
X233680000Y-142240000D03*
X233680000Y-144780000D03*
X233680000Y-147320000D03*
X233680000Y-149860000D03*
X233680000Y-152400000D03*
X233680000Y-154940000D03*
X233680000Y-157480000D03*
X233680000Y-160020000D03*
X233680000Y-162560000D03*
X236220000Y-139700000D03*
X236220000Y-142240000D03*
X236220000Y-144780000D03*
X236220000Y-147320000D03*
X236220000Y-149860000D03*
X236220000Y-152400000D03*
X236220000Y-154940000D03*
X236220000Y-157480000D03*
X236220000Y-160020000D03*
X236220000Y-162560000D03*
X238760000Y-139700000D03*
X238760000Y-142240000D03*
X238760000Y-144780000D03*
X238760000Y-147320000D03*
X238760000Y-149860000D03*
X238760000Y-152400000D03*
X238760000Y-154940000D03*
X238760000Y-157480000D03*
X238760000Y-160020000D03*
X238760000Y-162560000D03*
X241300000Y-139700000D03*
X241300000Y-142240000D03*
X241300000Y-144780000D03*
X241300000Y-147320000D03*
X241300000Y-149860000D03*
X241300000Y-152400000D03*
X241300000Y-154940000D03*
X241300000Y-157480000D03*
X241300000Y-160020000D03*
X241300000Y-162560000D03*
X243840000Y-139700000D03*
X243840000Y-142240000D03*
X243840000Y-144780000D03*
X243840000Y-147320000D03*
X243840000Y-149860000D03*
X243840000Y-152400000D03*
X243840000Y-154940000D03*
X243840000Y-157480000D03*
X243840000Y-160020000D03*
X243840000Y-162560000D03*
X246380000Y-139700000D03*
X246380000Y-142240000D03*
X246380000Y-144780000D03*
X246380000Y-147320000D03*
X246380000Y-149860000D03*
X246380000Y-152400000D03*
X246380000Y-154940000D03*
X246380000Y-157480000D03*
X246380000Y-160020000D03*
X246380000Y-162560000D03*
X248920000Y-139700000D03*
X248920000Y-142240000D03*
X248920000Y-144780000D03*
X248920000Y-147320000D03*
X248920000Y-149860000D03*
X248920000Y-152400000D03*
X248920000Y-154940000D03*
X248920000Y-157480000D03*
X248920000Y-160020000D03*
X248920000Y-162560000D03*
X251460000Y-139700000D03*
X251460000Y-142240000D03*
X251460000Y-144780000D03*
X251460000Y-147320000D03*
X251460000Y-149860000D03*
X251460000Y-152400000D03*
X251460000Y-154940000D03*
X251460000Y-157480000D03*
X251460000Y-160020000D03*
X251460000Y-162560000D03*
X254000000Y-139700000D03*
X254000000Y-142240000D03*
X254000000Y-144780000D03*
X254000000Y-147320000D03*
X254000000Y-149860000D03*
X254000000Y-152400000D03*
X254000000Y-154940000D03*
X254000000Y-157480000D03*
X254000000Y-160020000D03*
X254000000Y-162560000D03*
%TD*%
D14*
%TO.C,J80*%
X144272000Y-87884000D03*
D15*
X144272000Y-90424000D03*
X144272000Y-92964000D03*
X144272000Y-95504000D03*
X144272000Y-98044000D03*
X144272000Y-100584000D03*
X144272000Y-103124000D03*
X144272000Y-105664000D03*
X144272000Y-108204000D03*
X144272000Y-110744000D03*
X144272000Y-113284000D03*
X144272000Y-115824000D03*
X144272000Y-118364000D03*
X144272000Y-120904000D03*
X144272000Y-123444000D03*
X144272000Y-125984000D03*
X144272000Y-128524000D03*
X144272000Y-131064000D03*
X144272000Y-133604000D03*
X144272000Y-136144000D03*
%TD*%
D38*
%TO.C,D7*%
X229870000Y-173859000D03*
X229870000Y-172284000D03*
%TD*%
D12*
%TO.C,R37*%
X285750000Y-70612000D03*
X285750000Y-72437000D03*
%TD*%
D11*
%TO.C,REF\u002A\u002A*%
X205740000Y-86360000D03*
X208280000Y-86360000D03*
X210820000Y-86360000D03*
X213360000Y-86360000D03*
X215900000Y-86360000D03*
%TD*%
D14*
%TO.C,J37*%
X254508000Y-167640000D03*
D15*
X251968000Y-167640000D03*
X249428000Y-167640000D03*
X246888000Y-167640000D03*
%TD*%
D22*
%TO.C,R51*%
X240030000Y-177781500D03*
X240030000Y-175956500D03*
%TD*%
D14*
%TO.C,JP2*%
X297992800Y-222224600D03*
D15*
X295452800Y-222224600D03*
%TD*%
D14*
%TO.C,JP8*%
X215646000Y-66040000D03*
D15*
X215646000Y-63500000D03*
%TD*%
D14*
%TO.C,J72*%
X176022000Y-180081000D03*
D15*
X176022000Y-182621000D03*
X176022000Y-185161000D03*
X176022000Y-187701000D03*
X176022000Y-190241000D03*
X176022000Y-192781000D03*
X176022000Y-195321000D03*
X176022000Y-197861000D03*
X176022000Y-200401000D03*
X176022000Y-202941000D03*
X176022000Y-205481000D03*
X176022000Y-208021000D03*
X176022000Y-210561000D03*
X176022000Y-213101000D03*
X176022000Y-215641000D03*
X176022000Y-218181000D03*
X176022000Y-220721000D03*
X176022000Y-223261000D03*
X176022000Y-225801000D03*
X176022000Y-228341000D03*
%TD*%
D13*
%TO.C,SW12*%
X261112000Y-202946000D03*
X254612000Y-202946000D03*
X261112000Y-198446000D03*
X254612000Y-198446000D03*
%TD*%
D14*
%TO.C,J68*%
X148082000Y-205481000D03*
D15*
X148082000Y-208021000D03*
X148082000Y-210561000D03*
X148082000Y-213101000D03*
X148082000Y-215641000D03*
X148082000Y-218181000D03*
X148082000Y-220721000D03*
X148082000Y-223261000D03*
X148082000Y-225801000D03*
X148082000Y-228341000D03*
%TD*%
D14*
%TO.C,J50*%
X220980000Y-72898000D03*
D15*
X218440000Y-72898000D03*
%TD*%
D14*
%TO.C,J5*%
X254000000Y-85090000D03*
D15*
X251460000Y-85090000D03*
X248920000Y-85090000D03*
%TD*%
D12*
%TO.C,R58*%
X222250000Y-175956500D03*
X222250000Y-177781500D03*
%TD*%
D14*
%TO.C,J86*%
X127762000Y-186690000D03*
D15*
X130302000Y-186690000D03*
X132842000Y-186690000D03*
X135382000Y-186690000D03*
%TD*%
D11*
%TO.C,REF\u002A\u002A*%
X154940000Y-83820000D03*
X157480000Y-83820000D03*
X160020000Y-83820000D03*
X162560000Y-83820000D03*
X165100000Y-83820000D03*
%TD*%
%TO.C,REF\u002A\u002A*%
X205740000Y-78740000D03*
X208280000Y-78740000D03*
X210820000Y-78740000D03*
X213360000Y-78740000D03*
X215900000Y-78740000D03*
%TD*%
D12*
%TO.C,R49*%
X204724000Y-65993000D03*
X204724000Y-67818000D03*
%TD*%
D14*
%TO.C,J92*%
X269494000Y-210566000D03*
D15*
X269494000Y-213106000D03*
X269494000Y-215646000D03*
X269494000Y-218186000D03*
X269494000Y-220726000D03*
X269494000Y-223266000D03*
X269494000Y-225806000D03*
X269494000Y-228346000D03*
%TD*%
D34*
%TO.C,H2*%
X316230000Y-226568000D03*
D35*
X316230000Y-226568000D03*
%TD*%
D14*
%TO.C,J78*%
X127762000Y-87884000D03*
D15*
X130302000Y-87884000D03*
X127762000Y-90424000D03*
X130302000Y-90424000D03*
X127762000Y-92964000D03*
X130302000Y-92964000D03*
X127762000Y-95504000D03*
X130302000Y-95504000D03*
X127762000Y-98044000D03*
X130302000Y-98044000D03*
X127762000Y-100584000D03*
X130302000Y-100584000D03*
X127762000Y-103124000D03*
X130302000Y-103124000D03*
X127762000Y-105664000D03*
X130302000Y-105664000D03*
X127762000Y-108204000D03*
X130302000Y-108204000D03*
X127762000Y-110744000D03*
X130302000Y-110744000D03*
X127762000Y-113284000D03*
X130302000Y-113284000D03*
X127762000Y-115824000D03*
X130302000Y-115824000D03*
X127762000Y-118364000D03*
X130302000Y-118364000D03*
X127762000Y-120904000D03*
X130302000Y-120904000D03*
X127762000Y-123444000D03*
X130302000Y-123444000D03*
X127762000Y-125984000D03*
X130302000Y-125984000D03*
X127762000Y-128524000D03*
X130302000Y-128524000D03*
X127762000Y-131064000D03*
X130302000Y-131064000D03*
X127762000Y-133604000D03*
X130302000Y-133604000D03*
X127762000Y-136144000D03*
X130302000Y-136144000D03*
%TD*%
D11*
%TO.C,REF\u002A\u002A*%
X281940000Y-88900000D03*
X281940000Y-91440000D03*
X281940000Y-93980000D03*
X281940000Y-96520000D03*
X281940000Y-99060000D03*
X281940000Y-101600000D03*
X281940000Y-104140000D03*
X281940000Y-106680000D03*
X281940000Y-109220000D03*
X281940000Y-111760000D03*
X284480000Y-88900000D03*
X284480000Y-91440000D03*
X284480000Y-93980000D03*
X284480000Y-96520000D03*
X284480000Y-99060000D03*
X284480000Y-101600000D03*
X284480000Y-104140000D03*
X284480000Y-106680000D03*
X284480000Y-109220000D03*
X284480000Y-111760000D03*
X287020000Y-88900000D03*
X287020000Y-91440000D03*
X287020000Y-93980000D03*
X287020000Y-96520000D03*
X287020000Y-99060000D03*
X287020000Y-101600000D03*
X287020000Y-104140000D03*
X287020000Y-106680000D03*
X287020000Y-109220000D03*
X287020000Y-111760000D03*
X289560000Y-88900000D03*
X289560000Y-91440000D03*
X289560000Y-93980000D03*
X289560000Y-96520000D03*
X289560000Y-99060000D03*
X289560000Y-101600000D03*
X289560000Y-104140000D03*
X289560000Y-106680000D03*
X289560000Y-109220000D03*
X289560000Y-111760000D03*
X292100000Y-88900000D03*
X292100000Y-91440000D03*
X292100000Y-93980000D03*
X292100000Y-96520000D03*
X292100000Y-99060000D03*
X292100000Y-101600000D03*
X292100000Y-104140000D03*
X292100000Y-106680000D03*
X292100000Y-109220000D03*
X292100000Y-111760000D03*
X294640000Y-88900000D03*
X294640000Y-91440000D03*
X294640000Y-93980000D03*
X294640000Y-96520000D03*
X294640000Y-99060000D03*
X294640000Y-101600000D03*
X294640000Y-104140000D03*
X294640000Y-106680000D03*
X294640000Y-109220000D03*
X294640000Y-111760000D03*
X297180000Y-88900000D03*
X297180000Y-91440000D03*
X297180000Y-93980000D03*
X297180000Y-96520000D03*
X297180000Y-99060000D03*
X297180000Y-101600000D03*
X297180000Y-104140000D03*
X297180000Y-106680000D03*
X297180000Y-109220000D03*
X297180000Y-111760000D03*
X299720000Y-88900000D03*
X299720000Y-91440000D03*
X299720000Y-93980000D03*
X299720000Y-96520000D03*
X299720000Y-99060000D03*
X299720000Y-101600000D03*
X299720000Y-104140000D03*
X299720000Y-106680000D03*
X299720000Y-109220000D03*
X299720000Y-111760000D03*
X302260000Y-88900000D03*
X302260000Y-91440000D03*
X302260000Y-93980000D03*
X302260000Y-96520000D03*
X302260000Y-99060000D03*
X302260000Y-101600000D03*
X302260000Y-104140000D03*
X302260000Y-106680000D03*
X302260000Y-109220000D03*
X302260000Y-111760000D03*
X304800000Y-88900000D03*
X304800000Y-91440000D03*
X304800000Y-93980000D03*
X304800000Y-96520000D03*
X304800000Y-99060000D03*
X304800000Y-101600000D03*
X304800000Y-104140000D03*
X304800000Y-106680000D03*
X304800000Y-109220000D03*
X304800000Y-111760000D03*
%TD*%
D14*
%TO.C,J88*%
X213614000Y-215646000D03*
D15*
X213614000Y-218186000D03*
X213614000Y-220726000D03*
X213614000Y-223266000D03*
X213614000Y-225806000D03*
X213614000Y-228346000D03*
%TD*%
D12*
%TO.C,R55*%
X229870000Y-175956500D03*
X229870000Y-177781500D03*
%TD*%
D14*
%TO.C,J77*%
X141732000Y-87884000D03*
D15*
X141732000Y-90424000D03*
X141732000Y-92964000D03*
X141732000Y-95504000D03*
X141732000Y-98044000D03*
X141732000Y-100584000D03*
X141732000Y-103124000D03*
X141732000Y-105664000D03*
X141732000Y-108204000D03*
X141732000Y-110744000D03*
X141732000Y-113284000D03*
X141732000Y-115824000D03*
X141732000Y-118364000D03*
X141732000Y-120904000D03*
X141732000Y-123444000D03*
X141732000Y-125984000D03*
X141732000Y-128524000D03*
X141732000Y-131064000D03*
X141732000Y-133604000D03*
X141732000Y-136144000D03*
%TD*%
D13*
%TO.C,SW4*%
X235712000Y-202946000D03*
X229212000Y-202946000D03*
X235712000Y-198446000D03*
X229212000Y-198446000D03*
%TD*%
D14*
%TO.C,J6*%
X127762000Y-145288000D03*
D15*
X130302000Y-145288000D03*
X127762000Y-147828000D03*
X130302000Y-147828000D03*
X127762000Y-150368000D03*
X130302000Y-150368000D03*
X127762000Y-152908000D03*
X130302000Y-152908000D03*
X127762000Y-155448000D03*
X130302000Y-155448000D03*
X127762000Y-157988000D03*
X130302000Y-157988000D03*
X127762000Y-160528000D03*
X130302000Y-160528000D03*
X127762000Y-163068000D03*
X130302000Y-163068000D03*
X127762000Y-165608000D03*
X130302000Y-165608000D03*
X127762000Y-168148000D03*
X130302000Y-168148000D03*
%TD*%
D11*
%TO.C,REF\u002A\u002A*%
X193040000Y-78740000D03*
X195580000Y-78740000D03*
X198120000Y-78740000D03*
X200660000Y-78740000D03*
X203200000Y-78740000D03*
%TD*%
D46*
%TO.C,U1*%
X297434000Y-69850000D03*
D47*
X297434000Y-72390000D03*
X297434000Y-74930000D03*
%TD*%
D22*
%TO.C,R54*%
X232410000Y-177781500D03*
X232410000Y-175956500D03*
%TD*%
D20*
%TO.C,R33*%
X301752000Y-193802000D03*
X299927000Y-193802000D03*
%TD*%
D14*
%TO.C,JP9*%
X210820000Y-177800000D03*
D15*
X210820000Y-175260000D03*
%TD*%
D11*
%TO.C,REF\u002A\u002A*%
X307340000Y-114300000D03*
X307340000Y-116840000D03*
X307340000Y-119380000D03*
X307340000Y-121920000D03*
X307340000Y-124460000D03*
X309880000Y-114300000D03*
X309880000Y-116840000D03*
X309880000Y-119380000D03*
X309880000Y-121920000D03*
X309880000Y-124460000D03*
X312420000Y-114300000D03*
X312420000Y-116840000D03*
X312420000Y-119380000D03*
X312420000Y-121920000D03*
X312420000Y-124460000D03*
X314960000Y-114300000D03*
X314960000Y-116840000D03*
X314960000Y-119380000D03*
X314960000Y-121920000D03*
X314960000Y-124460000D03*
X317500000Y-114300000D03*
X317500000Y-116840000D03*
X317500000Y-119380000D03*
X317500000Y-121920000D03*
X317500000Y-124460000D03*
%TD*%
D13*
%TO.C,SW14*%
X261112000Y-223266000D03*
X254612000Y-223266000D03*
X261112000Y-218766000D03*
X254612000Y-218766000D03*
%TD*%
D34*
%TO.C,H1*%
X130810000Y-56388000D03*
D35*
X130810000Y-56388000D03*
%TD*%
D13*
%TO.C,SW11*%
X261112000Y-192786000D03*
X254612000Y-192786000D03*
X261112000Y-188286000D03*
X254612000Y-188286000D03*
%TD*%
D11*
%TO.C,REF\u002A\u002A*%
X193040000Y-86360000D03*
X195580000Y-86360000D03*
X198120000Y-86360000D03*
X200660000Y-86360000D03*
X203200000Y-86360000D03*
%TD*%
D14*
%TO.C,JP4*%
X303276000Y-184658000D03*
D15*
X300736000Y-184658000D03*
%TD*%
D14*
%TO.C,JP1*%
X298958000Y-166624000D03*
D15*
X296418000Y-166624000D03*
%TD*%
D14*
%TO.C,J67*%
X186182000Y-205481000D03*
D15*
X186182000Y-208021000D03*
X186182000Y-210561000D03*
X186182000Y-213101000D03*
X186182000Y-215641000D03*
X186182000Y-218181000D03*
X186182000Y-220721000D03*
X186182000Y-223261000D03*
X186182000Y-225801000D03*
X186182000Y-228341000D03*
%TD*%
D14*
%TO.C,J81*%
X141224000Y-145288000D03*
D15*
X141224000Y-147828000D03*
X141224000Y-150368000D03*
X141224000Y-152908000D03*
X141224000Y-155448000D03*
X141224000Y-157988000D03*
X141224000Y-160528000D03*
X141224000Y-163068000D03*
X141224000Y-165608000D03*
X141224000Y-168148000D03*
%TD*%
D23*
%TO.C,J2*%
X308388000Y-211876000D03*
D24*
X308388000Y-214376000D03*
X310388000Y-214376000D03*
X310388000Y-211876000D03*
D42*
X313248000Y-207126000D03*
X313248000Y-219126000D03*
%TD*%
D20*
%TO.C,R32*%
X301752000Y-196342000D03*
X299927000Y-196342000D03*
%TD*%
D14*
%TO.C,J61*%
X148082000Y-175001000D03*
D15*
X148082000Y-177541000D03*
X148082000Y-180081000D03*
X148082000Y-182621000D03*
X148082000Y-185161000D03*
X148082000Y-187701000D03*
X148082000Y-190241000D03*
X148082000Y-192781000D03*
X148082000Y-195321000D03*
X148082000Y-197861000D03*
X148082000Y-200401000D03*
X148082000Y-202941000D03*
%TD*%
D14*
%TO.C,JP15*%
X133858000Y-219710000D03*
D15*
X131318000Y-219710000D03*
%TD*%
D14*
%TO.C,J15*%
X295478200Y-210413600D03*
D15*
X295478200Y-212953600D03*
X295478200Y-215493600D03*
X295478200Y-218033600D03*
%TD*%
D14*
%TO.C,J101*%
X127762000Y-202438000D03*
D15*
X127762000Y-204978000D03*
X127762000Y-207518000D03*
X127762000Y-210058000D03*
X127762000Y-212598000D03*
X127762000Y-215138000D03*
%TD*%
D13*
%TO.C,J41*%
X219202000Y-50120000D03*
X227838000Y-50120000D03*
D31*
X219820000Y-57058000D03*
D32*
X223520000Y-57658000D03*
D31*
X227320000Y-57058000D03*
D33*
X223520000Y-54058000D03*
%TD*%
D11*
%TO.C,REF\u002A\u002A*%
X231140000Y-88900000D03*
X231140000Y-91440000D03*
X231140000Y-93980000D03*
X231140000Y-96520000D03*
X231140000Y-99060000D03*
X231140000Y-101600000D03*
X231140000Y-104140000D03*
X231140000Y-106680000D03*
X231140000Y-109220000D03*
X231140000Y-111760000D03*
X233680000Y-88900000D03*
X233680000Y-91440000D03*
X233680000Y-93980000D03*
X233680000Y-96520000D03*
X233680000Y-99060000D03*
X233680000Y-101600000D03*
X233680000Y-104140000D03*
X233680000Y-106680000D03*
X233680000Y-109220000D03*
X233680000Y-111760000D03*
X236220000Y-88900000D03*
X236220000Y-91440000D03*
X236220000Y-93980000D03*
X236220000Y-96520000D03*
X236220000Y-99060000D03*
X236220000Y-101600000D03*
X236220000Y-104140000D03*
X236220000Y-106680000D03*
X236220000Y-109220000D03*
X236220000Y-111760000D03*
X238760000Y-88900000D03*
X238760000Y-91440000D03*
X238760000Y-93980000D03*
X238760000Y-96520000D03*
X238760000Y-99060000D03*
X238760000Y-101600000D03*
X238760000Y-104140000D03*
X238760000Y-106680000D03*
X238760000Y-109220000D03*
X238760000Y-111760000D03*
X241300000Y-88900000D03*
X241300000Y-91440000D03*
X241300000Y-93980000D03*
X241300000Y-96520000D03*
X241300000Y-99060000D03*
X241300000Y-101600000D03*
X241300000Y-104140000D03*
X241300000Y-106680000D03*
X241300000Y-109220000D03*
X241300000Y-111760000D03*
X243840000Y-88900000D03*
X243840000Y-91440000D03*
X243840000Y-93980000D03*
X243840000Y-96520000D03*
X243840000Y-99060000D03*
X243840000Y-101600000D03*
X243840000Y-104140000D03*
X243840000Y-106680000D03*
X243840000Y-109220000D03*
X243840000Y-111760000D03*
X246380000Y-88900000D03*
X246380000Y-91440000D03*
X246380000Y-93980000D03*
X246380000Y-96520000D03*
X246380000Y-99060000D03*
X246380000Y-101600000D03*
X246380000Y-104140000D03*
X246380000Y-106680000D03*
X246380000Y-109220000D03*
X246380000Y-111760000D03*
X248920000Y-88900000D03*
X248920000Y-91440000D03*
X248920000Y-93980000D03*
X248920000Y-96520000D03*
X248920000Y-99060000D03*
X248920000Y-101600000D03*
X248920000Y-104140000D03*
X248920000Y-106680000D03*
X248920000Y-109220000D03*
X248920000Y-111760000D03*
X251460000Y-88900000D03*
X251460000Y-91440000D03*
X251460000Y-93980000D03*
X251460000Y-96520000D03*
X251460000Y-99060000D03*
X251460000Y-101600000D03*
X251460000Y-104140000D03*
X251460000Y-106680000D03*
X251460000Y-109220000D03*
X251460000Y-111760000D03*
X254000000Y-88900000D03*
X254000000Y-91440000D03*
X254000000Y-93980000D03*
X254000000Y-96520000D03*
X254000000Y-99060000D03*
X254000000Y-101600000D03*
X254000000Y-104140000D03*
X254000000Y-106680000D03*
X254000000Y-109220000D03*
X254000000Y-111760000D03*
%TD*%
%TO.C,REF\u002A\u002A*%
X154940000Y-114300000D03*
X154940000Y-116840000D03*
X154940000Y-119380000D03*
X154940000Y-121920000D03*
X154940000Y-124460000D03*
X154940000Y-127000000D03*
X154940000Y-129540000D03*
X154940000Y-132080000D03*
X154940000Y-134620000D03*
X154940000Y-137160000D03*
X157480000Y-114300000D03*
X157480000Y-116840000D03*
X157480000Y-119380000D03*
X157480000Y-121920000D03*
X157480000Y-124460000D03*
X157480000Y-127000000D03*
X157480000Y-129540000D03*
X157480000Y-132080000D03*
X157480000Y-134620000D03*
X157480000Y-137160000D03*
X160020000Y-114300000D03*
X160020000Y-116840000D03*
X160020000Y-119380000D03*
X160020000Y-121920000D03*
X160020000Y-124460000D03*
X160020000Y-127000000D03*
X160020000Y-129540000D03*
X160020000Y-132080000D03*
X160020000Y-134620000D03*
X160020000Y-137160000D03*
X162560000Y-114300000D03*
X162560000Y-116840000D03*
X162560000Y-119380000D03*
X162560000Y-121920000D03*
X162560000Y-124460000D03*
X162560000Y-127000000D03*
X162560000Y-129540000D03*
X162560000Y-132080000D03*
X162560000Y-134620000D03*
X162560000Y-137160000D03*
X165100000Y-114300000D03*
X165100000Y-116840000D03*
X165100000Y-119380000D03*
X165100000Y-121920000D03*
X165100000Y-124460000D03*
X165100000Y-127000000D03*
X165100000Y-129540000D03*
X165100000Y-132080000D03*
X165100000Y-134620000D03*
X165100000Y-137160000D03*
X167640000Y-114300000D03*
X167640000Y-116840000D03*
X167640000Y-119380000D03*
X167640000Y-121920000D03*
X167640000Y-124460000D03*
X167640000Y-127000000D03*
X167640000Y-129540000D03*
X167640000Y-132080000D03*
X167640000Y-134620000D03*
X167640000Y-137160000D03*
X170180000Y-114300000D03*
X170180000Y-116840000D03*
X170180000Y-119380000D03*
X170180000Y-121920000D03*
X170180000Y-124460000D03*
X170180000Y-127000000D03*
X170180000Y-129540000D03*
X170180000Y-132080000D03*
X170180000Y-134620000D03*
X170180000Y-137160000D03*
X172720000Y-114300000D03*
X172720000Y-116840000D03*
X172720000Y-119380000D03*
X172720000Y-121920000D03*
X172720000Y-124460000D03*
X172720000Y-127000000D03*
X172720000Y-129540000D03*
X172720000Y-132080000D03*
X172720000Y-134620000D03*
X172720000Y-137160000D03*
X175260000Y-114300000D03*
X175260000Y-116840000D03*
X175260000Y-119380000D03*
X175260000Y-121920000D03*
X175260000Y-124460000D03*
X175260000Y-127000000D03*
X175260000Y-129540000D03*
X175260000Y-132080000D03*
X175260000Y-134620000D03*
X175260000Y-137160000D03*
X177800000Y-114300000D03*
X177800000Y-116840000D03*
X177800000Y-119380000D03*
X177800000Y-121920000D03*
X177800000Y-124460000D03*
X177800000Y-127000000D03*
X177800000Y-129540000D03*
X177800000Y-132080000D03*
X177800000Y-134620000D03*
X177800000Y-137160000D03*
%TD*%
%TO.C,REF\u002A\u002A*%
X281940000Y-139700000D03*
X281940000Y-142240000D03*
X281940000Y-144780000D03*
X281940000Y-147320000D03*
X281940000Y-149860000D03*
X281940000Y-152400000D03*
X281940000Y-154940000D03*
X281940000Y-157480000D03*
X281940000Y-160020000D03*
X281940000Y-162560000D03*
X284480000Y-139700000D03*
X284480000Y-142240000D03*
X284480000Y-144780000D03*
X284480000Y-147320000D03*
X284480000Y-149860000D03*
X284480000Y-152400000D03*
X284480000Y-154940000D03*
X284480000Y-157480000D03*
X284480000Y-160020000D03*
X284480000Y-162560000D03*
X287020000Y-139700000D03*
X287020000Y-142240000D03*
X287020000Y-144780000D03*
X287020000Y-147320000D03*
X287020000Y-149860000D03*
X287020000Y-152400000D03*
X287020000Y-154940000D03*
X287020000Y-157480000D03*
X287020000Y-160020000D03*
X287020000Y-162560000D03*
X289560000Y-139700000D03*
X289560000Y-142240000D03*
X289560000Y-144780000D03*
X289560000Y-147320000D03*
X289560000Y-149860000D03*
X289560000Y-152400000D03*
X289560000Y-154940000D03*
X289560000Y-157480000D03*
X289560000Y-160020000D03*
X289560000Y-162560000D03*
X292100000Y-139700000D03*
X292100000Y-142240000D03*
X292100000Y-144780000D03*
X292100000Y-147320000D03*
X292100000Y-149860000D03*
X292100000Y-152400000D03*
X292100000Y-154940000D03*
X292100000Y-157480000D03*
X292100000Y-160020000D03*
X292100000Y-162560000D03*
X294640000Y-139700000D03*
X294640000Y-142240000D03*
X294640000Y-144780000D03*
X294640000Y-147320000D03*
X294640000Y-149860000D03*
X294640000Y-152400000D03*
X294640000Y-154940000D03*
X294640000Y-157480000D03*
X294640000Y-160020000D03*
X294640000Y-162560000D03*
X297180000Y-139700000D03*
X297180000Y-142240000D03*
X297180000Y-144780000D03*
X297180000Y-147320000D03*
X297180000Y-149860000D03*
X297180000Y-152400000D03*
X297180000Y-154940000D03*
X297180000Y-157480000D03*
X297180000Y-160020000D03*
X297180000Y-162560000D03*
X299720000Y-139700000D03*
X299720000Y-142240000D03*
X299720000Y-144780000D03*
X299720000Y-147320000D03*
X299720000Y-149860000D03*
X299720000Y-152400000D03*
X299720000Y-154940000D03*
X299720000Y-157480000D03*
X299720000Y-160020000D03*
X299720000Y-162560000D03*
X302260000Y-139700000D03*
X302260000Y-142240000D03*
X302260000Y-144780000D03*
X302260000Y-147320000D03*
X302260000Y-149860000D03*
X302260000Y-152400000D03*
X302260000Y-154940000D03*
X302260000Y-157480000D03*
X302260000Y-160020000D03*
X302260000Y-162560000D03*
X304800000Y-139700000D03*
X304800000Y-142240000D03*
X304800000Y-144780000D03*
X304800000Y-147320000D03*
X304800000Y-149860000D03*
X304800000Y-152400000D03*
X304800000Y-154940000D03*
X304800000Y-157480000D03*
X304800000Y-160020000D03*
X304800000Y-162560000D03*
%TD*%
D14*
%TO.C,J7*%
X305816000Y-179324000D03*
D15*
X305816000Y-176784000D03*
X305816000Y-174244000D03*
X305816000Y-171704000D03*
%TD*%
D11*
%TO.C,REF\u002A\u002A*%
X256540000Y-88900000D03*
X256540000Y-91440000D03*
X256540000Y-93980000D03*
X256540000Y-96520000D03*
X256540000Y-99060000D03*
X256540000Y-101600000D03*
X256540000Y-104140000D03*
X256540000Y-106680000D03*
X256540000Y-109220000D03*
X256540000Y-111760000D03*
X259080000Y-88900000D03*
X259080000Y-91440000D03*
X259080000Y-93980000D03*
X259080000Y-96520000D03*
X259080000Y-99060000D03*
X259080000Y-101600000D03*
X259080000Y-104140000D03*
X259080000Y-106680000D03*
X259080000Y-109220000D03*
X259080000Y-111760000D03*
X261620000Y-88900000D03*
X261620000Y-91440000D03*
X261620000Y-93980000D03*
X261620000Y-96520000D03*
X261620000Y-99060000D03*
X261620000Y-101600000D03*
X261620000Y-104140000D03*
X261620000Y-106680000D03*
X261620000Y-109220000D03*
X261620000Y-111760000D03*
X264160000Y-88900000D03*
X264160000Y-91440000D03*
X264160000Y-93980000D03*
X264160000Y-96520000D03*
X264160000Y-99060000D03*
X264160000Y-101600000D03*
X264160000Y-104140000D03*
X264160000Y-106680000D03*
X264160000Y-109220000D03*
X264160000Y-111760000D03*
X266700000Y-88900000D03*
X266700000Y-91440000D03*
X266700000Y-93980000D03*
X266700000Y-96520000D03*
X266700000Y-99060000D03*
X266700000Y-101600000D03*
X266700000Y-104140000D03*
X266700000Y-106680000D03*
X266700000Y-109220000D03*
X266700000Y-111760000D03*
X269240000Y-88900000D03*
X269240000Y-91440000D03*
X269240000Y-93980000D03*
X269240000Y-96520000D03*
X269240000Y-99060000D03*
X269240000Y-101600000D03*
X269240000Y-104140000D03*
X269240000Y-106680000D03*
X269240000Y-109220000D03*
X269240000Y-111760000D03*
X271780000Y-88900000D03*
X271780000Y-91440000D03*
X271780000Y-93980000D03*
X271780000Y-96520000D03*
X271780000Y-99060000D03*
X271780000Y-101600000D03*
X271780000Y-104140000D03*
X271780000Y-106680000D03*
X271780000Y-109220000D03*
X271780000Y-111760000D03*
X274320000Y-88900000D03*
X274320000Y-91440000D03*
X274320000Y-93980000D03*
X274320000Y-96520000D03*
X274320000Y-99060000D03*
X274320000Y-101600000D03*
X274320000Y-104140000D03*
X274320000Y-106680000D03*
X274320000Y-109220000D03*
X274320000Y-111760000D03*
X276860000Y-88900000D03*
X276860000Y-91440000D03*
X276860000Y-93980000D03*
X276860000Y-96520000D03*
X276860000Y-99060000D03*
X276860000Y-101600000D03*
X276860000Y-104140000D03*
X276860000Y-106680000D03*
X276860000Y-109220000D03*
X276860000Y-111760000D03*
X279400000Y-88900000D03*
X279400000Y-91440000D03*
X279400000Y-93980000D03*
X279400000Y-96520000D03*
X279400000Y-99060000D03*
X279400000Y-101600000D03*
X279400000Y-104140000D03*
X279400000Y-106680000D03*
X279400000Y-109220000D03*
X279400000Y-111760000D03*
%TD*%
D14*
%TO.C,J25*%
X162560000Y-79756000D03*
D15*
X165100000Y-79756000D03*
X167640000Y-79756000D03*
X170180000Y-79756000D03*
X172720000Y-79756000D03*
X175260000Y-79756000D03*
%TD*%
D38*
%TO.C,D5*%
X234950000Y-173859000D03*
X234950000Y-172284000D03*
%TD*%
D14*
%TO.C,J79*%
X148590000Y-76708000D03*
D15*
X148590000Y-79248000D03*
X148590000Y-81788000D03*
X148590000Y-84328000D03*
%TD*%
D14*
%TO.C,J93*%
X277876000Y-183642000D03*
D15*
X277876000Y-186182000D03*
X277876000Y-188722000D03*
X277876000Y-191262000D03*
X277876000Y-193802000D03*
X277876000Y-196342000D03*
X277876000Y-198882000D03*
X277876000Y-201422000D03*
X277876000Y-203962000D03*
X277876000Y-206502000D03*
%TD*%
D16*
%TO.C,R22*%
X309071000Y-187198000D03*
X310896000Y-187198000D03*
%TD*%
D14*
%TO.C,J71*%
X198628000Y-205481000D03*
D15*
X198628000Y-208021000D03*
X198628000Y-210561000D03*
X198628000Y-213101000D03*
X198628000Y-215641000D03*
X198628000Y-218181000D03*
X198628000Y-220721000D03*
X198628000Y-223261000D03*
X198628000Y-225801000D03*
X198628000Y-228341000D03*
%TD*%
D11*
%TO.C,REF\u002A\u002A*%
X205740000Y-83820000D03*
X208280000Y-83820000D03*
X210820000Y-83820000D03*
X213360000Y-83820000D03*
X215900000Y-83820000D03*
%TD*%
D12*
%TO.C,R52*%
X237490000Y-175956500D03*
X237490000Y-177781500D03*
%TD*%
D11*
%TO.C,REF\u002A\u002A*%
X167640000Y-83820000D03*
X170180000Y-83820000D03*
X172720000Y-83820000D03*
X175260000Y-83820000D03*
X177800000Y-83820000D03*
%TD*%
D14*
%TO.C,J59*%
X241300000Y-85059000D03*
D15*
X238760000Y-85059000D03*
X236220000Y-85059000D03*
X233680000Y-85059000D03*
%TD*%
D14*
%TO.C,JP7*%
X199136000Y-66040000D03*
D15*
X199136000Y-63500000D03*
%TD*%
D48*
%TO.C,J17*%
X316984000Y-196438000D03*
X316984000Y-190658000D03*
D49*
X315539000Y-196798000D03*
X315539000Y-195998000D03*
D50*
X315539000Y-194798000D03*
X315539000Y-193798000D03*
X315539000Y-193298000D03*
X315539000Y-192298000D03*
D49*
X315539000Y-191098000D03*
X315539000Y-190298000D03*
X315539000Y-190298000D03*
X315539000Y-191098000D03*
D50*
X315539000Y-191798000D03*
X315539000Y-192798000D03*
X315539000Y-194298000D03*
X315539000Y-195298000D03*
D49*
X315539000Y-195998000D03*
X315539000Y-196798000D03*
D51*
X316454000Y-197868000D03*
D52*
X320634000Y-197868000D03*
D51*
X316454000Y-189228000D03*
D52*
X320634000Y-189228000D03*
%TD*%
D22*
%TO.C,R41*%
X260858000Y-172870500D03*
X260858000Y-171045500D03*
%TD*%
D14*
%TO.C,J8*%
X303452500Y-210413600D03*
D15*
X303452500Y-212953600D03*
X303452500Y-215493600D03*
X303452500Y-218033600D03*
%TD*%
D12*
%TO.C,R48*%
X188468000Y-66040000D03*
X188468000Y-67865000D03*
%TD*%
D14*
%TO.C,J66*%
X186182000Y-175001000D03*
D15*
X186182000Y-177541000D03*
X186182000Y-180081000D03*
X186182000Y-182621000D03*
X186182000Y-185161000D03*
X186182000Y-187701000D03*
X186182000Y-190241000D03*
X186182000Y-192781000D03*
X186182000Y-195321000D03*
X186182000Y-197861000D03*
X186182000Y-200401000D03*
X186182000Y-202941000D03*
%TD*%
D11*
%TO.C,REF\u002A\u002A*%
X180340000Y-78740000D03*
X182880000Y-78740000D03*
X185420000Y-78740000D03*
X187960000Y-78740000D03*
X190500000Y-78740000D03*
%TD*%
%TO.C,REF\u002A\u002A*%
X193040000Y-81280000D03*
X195580000Y-81280000D03*
X198120000Y-81280000D03*
X200660000Y-81280000D03*
X203200000Y-81280000D03*
%TD*%
D14*
%TO.C,J91*%
X269494000Y-183642000D03*
D15*
X269494000Y-186182000D03*
X269494000Y-188722000D03*
X269494000Y-191262000D03*
X269494000Y-193802000D03*
X269494000Y-196342000D03*
X269494000Y-198882000D03*
X269494000Y-201422000D03*
X269494000Y-203962000D03*
X269494000Y-206502000D03*
%TD*%
M02*
