M48
; DRILL file {KiCad 8.0.6} date 2025-03-30T13:12:06-0300
; FORMAT={-:-/ absolute / inch / decimal}
; #@! TF.CreationDate,2025-03-30T13:12:06-03:00
; #@! TF.GenerationSoftware,Kicad,Pcbnew,8.0.6
; #@! TF.FileFunction,Plated,1,2,PTH
FMAT,2
INCH
; #@! TA.AperFunction,Plated,PTH,ViaDrill
T1C0.0197
; #@! TA.AperFunction,Plated,PTH,ComponentDrill
T2C0.0236
; #@! TA.AperFunction,Plated,PTH,ComponentDrill
T3C0.0256
; #@! TA.AperFunction,Plated,PTH,ComponentDrill
T4C0.0276
; #@! TA.AperFunction,Plated,PTH,ComponentDrill
T5C0.0315
; #@! TA.AperFunction,Plated,PTH,ComponentDrill
T6C0.0362
; #@! TA.AperFunction,Plated,PTH,ComponentDrill
T7C0.0374
; #@! TA.AperFunction,Plated,PTH,ComponentDrill
T8C0.0394
; #@! TA.AperFunction,Plated,PTH,ViaDrill
T9C0.0400
; #@! TA.AperFunction,Plated,PTH,ComponentDrill
T10C0.0433
; #@! TA.AperFunction,Plated,PTH,ComponentDrill
T11C0.0551
; #@! TA.AperFunction,Plated,PTH,ComponentDrill
T12C0.0591
; #@! TA.AperFunction,Plated,PTH,ComponentDrill
T13C0.0598
; #@! TA.AperFunction,Plated,PTH,ComponentDrill
T14C0.0906
; #@! TA.AperFunction,Plated,PTH,ComponentDrill
T15C0.1260
%
G90
G05
T1
X4.95Y-3.3
X4.95Y-5.55
X4.95Y-6.75
X4.95Y-7.45
X4.95Y-7.6
X4.99Y-2.75
X5.0Y-2.4
X5.0Y-8.65
X5.15Y-5.55
X5.15Y-7.9
X5.16Y-7.65
X5.2Y-2.6
X5.2Y-2.9
X5.21Y-6.9
X5.26Y-6.94
X5.3Y-7.85
X5.3Y-9.1
X5.4Y-2.4
X5.4Y-2.75
X5.4Y-5.55
X5.4Y-7.2
X5.4Y-7.5
X5.4Y-7.7
X5.5Y-2.1
X5.5Y-8.55
X5.5Y-8.75
X5.5Y-8.9
X5.5Y-9.1
X5.6Y-6.9
X5.6Y-7.1
X5.6Y-7.3
X5.6Y-7.5
X5.6Y-7.7
X5.6Y-7.9
X5.6Y-8.1
X5.6Y-8.3
X5.65Y-5.55
X5.7Y-9.1
X5.8Y-2.05
X5.8Y-6.55
X5.86Y-5.92
X5.9Y-5.55
X5.9Y-5.72
X6.0Y-3.0
X6.0Y-3.3
X6.0Y-3.45
X6.0Y-3.7
X6.0Y-4.05
X6.0Y-4.35
X6.0Y-4.55
X6.0Y-4.8
X6.0Y-5.05
X6.0Y-5.3
X6.0Y-6.8
X6.0Y-9.1
X6.1Y-3.15
X6.2Y-6.6
X6.2Y-6.8
X6.2Y-9.1
X6.4Y-6.6
X6.5Y-6.8
X6.5Y-7.0
X6.5Y-7.3
X6.5Y-7.5
X6.5Y-7.7
X6.5Y-7.9
X6.5Y-8.1
X6.5Y-8.3
X6.5Y-8.5
X6.5Y-8.7
X6.5Y-8.9
X6.5Y-9.1
X6.6Y-6.6
X6.65Y-7.15
X6.7Y-2.1
X6.7Y-6.8
X6.8Y-6.6
X6.8Y-7.0
X6.8Y-7.3
X6.8Y-7.5
X6.8Y-7.7
X6.8Y-7.9
X6.8Y-8.1
X6.8Y-8.3
X6.8Y-8.5
X6.8Y-8.7
X6.8Y-8.9
X6.8Y-9.1
X6.9Y-6.8
X7.0Y-2.5
X7.0Y-2.7
X7.0Y-2.9
X7.0Y-6.6
X7.0Y-9.1
X7.1Y-2.1
X7.1Y-2.4
X7.1Y-2.6
X7.1Y-2.8
X7.1Y-3.0
X7.1Y-6.8
X7.2Y-6.6
X7.2Y-7.0
X7.2Y-9.1
X7.21Y-2.2
X7.4Y-6.6
X7.4Y-6.8
X7.4Y-9.1
X7.41Y-2.49
X7.5Y-2.0
X7.5Y-3.0
X7.6Y-6.6
X7.63Y-2.5
X7.7Y-6.8
X7.7Y-9.1
X7.8Y-2.0
X7.8Y-3.0
X7.8Y-6.6
X7.9Y-9.1
X8.0Y-6.6
X8.08Y-2.49
X8.1Y-6.8
X8.12Y-7.1
X8.12Y-7.3
X8.12Y-7.6
X8.12Y-7.9
X8.12Y-8.2
X8.12Y-8.5
X8.12Y-8.8
X8.12Y-9.1
X8.2Y-3.0
X8.2Y-6.6
X8.29Y-2.49
X8.3Y-7.1
X8.4Y-2.0
X8.4Y-6.6
X8.49Y-2.2
X8.5Y-3.0
X8.5Y-7.2
X8.5Y-7.4
X8.5Y-9.1
X8.6Y-6.6
X8.6Y-6.9
X8.7Y-2.48
X8.7Y-7.2
X8.8Y-3.0
X8.8Y-7.4
X8.8Y-7.6
X8.8Y-7.8
X8.8Y-8.0
X8.8Y-8.4
X8.8Y-8.7
X8.85Y-1.99
X8.9Y-2.49
X8.9Y-8.9
X8.9Y-9.1
X9.1Y-2.0
X9.1Y-2.2
X9.1Y-2.5
X9.1Y-3.0
X9.1Y-8.9
X9.1Y-9.1
X9.3Y-8.9
X9.32Y-2.16
X9.6Y-2.2
X9.6Y-3.0
X9.7Y-2.0
X9.7Y-3.2
X9.8Y-8.9
X9.9Y-2.1
X10.0Y-2.35
X10.0Y-2.65
X10.1Y-2.1
X10.1Y-2.9
X10.1Y-3.15
X10.1Y-8.9
X10.1Y-9.1
X10.2Y-2.35
X10.3Y-2.1
X10.3Y-9.0
X10.5Y-8.2
X10.5Y-8.5
X10.5Y-8.7
X10.5Y-8.9
X10.5Y-9.1
X10.6Y-2.1
X10.6Y-2.4
X10.6Y-2.7
X10.6Y-2.9
X10.6Y-3.1
X10.6Y-6.5
X10.6Y-6.7
X10.7Y-6.9
X10.7Y-7.1
X10.75Y-2.25
X10.75Y-2.9
X10.8Y-9.1
X10.9Y-3.1
X10.9Y-6.5
X10.9Y-6.9
X10.9Y-7.1
X11.0Y-9.1
X11.1Y-6.5
X11.1Y-6.7
X11.1Y-6.9
X11.1Y-7.1
X11.2Y-2.1
X11.2Y-2.35
X11.2Y-3.1
X11.2Y-3.3
X11.2Y-8.3
X11.2Y-8.6
X11.3Y-6.5
X11.3Y-6.7
X11.3Y-6.9
X11.3Y-7.1
X11.3Y-7.3
X11.3Y-7.5
X11.3Y-7.7
X11.3Y-7.9
X11.3Y-8.1
X11.3Y-8.7
X11.3Y-8.9
X11.3Y-9.1
X11.4Y-9.0
X11.5Y-2.1
X11.5Y-6.6
X11.5Y-6.9
X11.5Y-7.3
X11.5Y-8.1
X11.5Y-8.7
X11.5Y-9.0
X11.6Y-8.9
X11.6Y-9.1
X11.7Y-2.35
X11.7Y-2.6
X11.7Y-3.1
X11.7Y-7.3
X11.7Y-8.1
X11.8Y-2.1
X11.83Y-2.3
X11.83Y-2.5
X11.9Y-2.8
X11.9Y-3.1
X11.9Y-3.3
X11.9Y-8.1
X11.9Y-8.8
X11.9Y-9.0
X12.1Y-2.1
X12.1Y-2.3
X12.1Y-7.2
X12.1Y-8.1
X12.17Y-7.5
X12.2Y-8.8
X12.2Y-9.0
X12.21Y-7.79
X12.24Y-7.49
X12.29Y-7.79
X12.4Y-2.6
X12.4Y-3.0
X12.4Y-6.8
X12.4Y-7.0
X12.4Y-7.9
X12.6Y-2.0
X12.6Y-2.6
X12.6Y-6.6
X12.6Y-6.8
X12.6Y-7.0
X12.6Y-7.2
X12.6Y-7.6
X12.6Y-7.9
X12.6Y-8.1
X12.6Y-8.3
X12.6Y-8.5
X12.6Y-8.7
T3
X5.03Y-6.95
X5.03Y-7.0
X5.03Y-7.05
X5.03Y-7.1
X5.03Y-7.15
X5.08Y-6.95
X5.08Y-7.0
X5.08Y-7.05
X5.08Y-7.1
X5.08Y-7.15
T5
X10.9Y-2.6798
X10.9Y-2.7586
X10.9Y-2.8373
X11.4152Y-2.6698
X11.4152Y-3.0598
X11.5136Y-2.6698
X11.5136Y-3.0598
T6
X12.211Y-6.7895
X12.211Y-6.888
X12.211Y-6.9667
X12.211Y-7.0651
T7
X12.1413Y-8.3416
X12.1413Y-8.44
X12.22Y-8.3416
X12.22Y-8.44
T8
X5.03Y-3.06
X5.03Y-3.16
X5.03Y-3.46
X5.03Y-3.56
X5.03Y-3.66
X5.03Y-3.76
X5.03Y-3.86
X5.03Y-3.96
X5.03Y-4.06
X5.03Y-4.16
X5.03Y-4.26
X5.03Y-4.36
X5.03Y-4.46
X5.03Y-4.56
X5.03Y-4.66
X5.03Y-4.76
X5.03Y-4.86
X5.03Y-4.96
X5.03Y-5.06
X5.03Y-5.16
X5.03Y-5.26
X5.03Y-5.36
X5.03Y-5.72
X5.03Y-5.82
X5.03Y-5.92
X5.03Y-6.02
X5.03Y-6.12
X5.03Y-6.22
X5.03Y-6.32
X5.03Y-6.42
X5.03Y-6.52
X5.03Y-6.62
X5.03Y-7.35
X5.03Y-7.77
X5.03Y-7.97
X5.03Y-8.07
X5.03Y-8.17
X5.03Y-8.27
X5.03Y-8.37
X5.03Y-8.47
X5.13Y-3.46
X5.13Y-3.56
X5.13Y-3.66
X5.13Y-3.76
X5.13Y-3.86
X5.13Y-3.96
X5.13Y-4.06
X5.13Y-4.16
X5.13Y-4.26
X5.13Y-4.36
X5.13Y-4.46
X5.13Y-4.56
X5.13Y-4.66
X5.13Y-4.76
X5.13Y-4.86
X5.13Y-4.96
X5.13Y-5.06
X5.13Y-5.16
X5.13Y-5.26
X5.13Y-5.36
X5.13Y-5.72
X5.13Y-5.82
X5.13Y-5.92
X5.13Y-6.02
X5.13Y-6.12
X5.13Y-6.22
X5.13Y-6.32
X5.13Y-6.42
X5.13Y-6.52
X5.13Y-6.62
X5.13Y-7.35
X5.13Y-7.77
X5.17Y-8.65
X5.23Y-7.35
X5.27Y-8.65
X5.33Y-7.35
X5.42Y-7.97
X5.42Y-8.07
X5.42Y-8.17
X5.42Y-8.27
X5.42Y-8.37
X5.42Y-8.47
X5.43Y-3.02
X5.43Y-3.12
X5.56Y-5.72
X5.56Y-5.82
X5.56Y-5.92
X5.56Y-6.02
X5.56Y-6.12
X5.56Y-6.22
X5.56Y-6.32
X5.56Y-6.42
X5.56Y-6.52
X5.56Y-6.62
X5.58Y-3.46
X5.58Y-3.56
X5.58Y-3.66
X5.58Y-3.76
X5.58Y-3.86
X5.58Y-3.96
X5.58Y-4.06
X5.58Y-4.16
X5.58Y-4.26
X5.58Y-4.36
X5.58Y-4.46
X5.58Y-4.56
X5.58Y-4.66
X5.58Y-4.76
X5.58Y-4.86
X5.58Y-4.96
X5.58Y-5.06
X5.58Y-5.16
X5.58Y-5.26
X5.58Y-5.36
X5.64Y-2.22
X5.64Y-2.32
X5.66Y-5.72
X5.66Y-5.82
X5.66Y-5.92
X5.66Y-6.02
X5.66Y-6.12
X5.66Y-6.22
X5.66Y-6.32
X5.66Y-6.42
X5.66Y-6.52
X5.66Y-6.62
X5.68Y-3.46
X5.68Y-3.56
X5.68Y-3.66
X5.68Y-3.76
X5.68Y-3.86
X5.68Y-3.96
X5.68Y-4.06
X5.68Y-4.16
X5.68Y-4.26
X5.68Y-4.36
X5.68Y-4.46
X5.68Y-4.56
X5.68Y-4.66
X5.68Y-4.76
X5.68Y-4.86
X5.68Y-4.96
X5.68Y-5.06
X5.68Y-5.16
X5.68Y-5.26
X5.68Y-5.36
X5.83Y-6.8898
X5.83Y-6.9898
X5.83Y-7.0898
X5.83Y-7.1898
X5.83Y-7.2898
X5.83Y-7.3898
X5.83Y-7.4898
X5.83Y-7.5898
X5.83Y-7.6898
X5.83Y-7.7898
X5.83Y-7.8898
X5.83Y-7.9898
X5.83Y-8.0898
X5.83Y-8.1898
X5.83Y-8.2898
X5.83Y-8.3898
X5.83Y-8.4898
X5.83Y-8.5898
X5.83Y-8.6898
X5.83Y-8.7898
X5.83Y-8.8898
X5.83Y-8.9898
X5.85Y-2.57
X5.85Y-2.67
X5.85Y-2.77
X5.85Y-2.87
X5.85Y-3.02
X5.85Y-3.12
X5.85Y-3.22
X5.85Y-3.32
X5.86Y-6.02
X5.86Y-6.12
X5.86Y-6.22
X5.86Y-6.32
X5.86Y-6.42
X5.96Y-6.02
X5.96Y-6.12
X5.96Y-6.22
X5.96Y-6.32
X5.96Y-6.42
X6.08Y-6.8898
X6.08Y-6.9898
X6.08Y-7.0898
X6.08Y-7.1898
X6.08Y-7.2898
X6.08Y-7.3898
X6.08Y-7.4898
X6.08Y-7.5898
X6.08Y-7.6898
X6.08Y-7.7898
X6.08Y-7.8898
X6.08Y-7.9898
X6.08Y-8.0898
X6.08Y-8.1898
X6.08Y-8.2898
X6.08Y-8.3898
X6.08Y-8.4898
X6.08Y-8.5898
X6.08Y-8.6898
X6.08Y-8.7898
X6.08Y-8.8898
X6.08Y-8.9898
X6.1Y-2.72
X6.1Y-3.3
X6.1Y-3.4
X6.1Y-3.5
X6.1Y-3.6
X6.1Y-3.7
X6.1Y-3.8
X6.1Y-3.9
X6.1Y-4.0
X6.1Y-4.1
X6.1Y-4.2
X6.1Y-4.3
X6.1Y-4.4
X6.1Y-4.5
X6.1Y-4.6
X6.1Y-4.7
X6.1Y-4.8
X6.1Y-4.9
X6.1Y-5.0
X6.1Y-5.1
X6.1Y-5.2
X6.1Y-5.3
X6.1Y-5.4
X6.1Y-5.5
X6.1Y-5.6
X6.1Y-5.7
X6.1Y-5.8
X6.1Y-5.9
X6.1Y-6.0
X6.1Y-6.1
X6.1Y-6.2
X6.1Y-6.3
X6.1Y-6.4
X6.1898Y-2.2318
X6.2Y-2.72
X6.2Y-3.3
X6.2Y-3.4
X6.2Y-3.5
X6.2Y-3.6
X6.2Y-3.7
X6.2Y-3.8
X6.2Y-3.9
X6.2Y-4.0
X6.2Y-4.1
X6.2Y-4.2
X6.2Y-4.3
X6.2Y-4.4
X6.2Y-4.5
X6.2Y-4.6
X6.2Y-4.7
X6.2Y-4.8
X6.2Y-4.9
X6.2Y-5.0
X6.2Y-5.1
X6.2Y-5.2
X6.2Y-5.3
X6.2Y-5.4
X6.2Y-5.5
X6.2Y-5.6
X6.2Y-5.7
X6.2Y-5.8
X6.2Y-5.9
X6.2Y-6.0
X6.2Y-6.1
X6.2Y-6.2
X6.2Y-6.3
X6.2Y-6.4
X6.2443Y-2.12
X6.2988Y-2.2318
X6.3Y-2.72
X6.3Y-3.3
X6.3Y-3.4
X6.3Y-3.5
X6.3Y-3.6
X6.3Y-3.7
X6.3Y-3.8
X6.3Y-3.9
X6.3Y-4.0
X6.3Y-4.1
X6.3Y-4.2
X6.3Y-4.3
X6.3Y-4.4
X6.3Y-4.5
X6.3Y-4.6
X6.3Y-4.7
X6.3Y-4.8
X6.3Y-4.9
X6.3Y-5.0
X6.3Y-5.1
X6.3Y-5.2
X6.3Y-5.3
X6.3Y-5.4
X6.3Y-5.5
X6.3Y-5.6
X6.3Y-5.7
X6.3Y-5.8
X6.3Y-5.9
X6.3Y-6.0
X6.3Y-6.1
X6.3Y-6.2
X6.3Y-6.3
X6.3Y-6.4
X6.33Y-6.8898
X6.33Y-6.9898
X6.33Y-7.0898
X6.33Y-7.1898
X6.33Y-7.2898
X6.33Y-7.3898
X6.33Y-7.4898
X6.33Y-7.5898
X6.33Y-7.6898
X6.33Y-7.7898
X6.33Y-7.8898
X6.33Y-7.9898
X6.33Y-8.0898
X6.33Y-8.1898
X6.33Y-8.2898
X6.33Y-8.3898
X6.33Y-8.4898
X6.33Y-8.5898
X6.33Y-8.6898
X6.33Y-8.7898
X6.33Y-8.8898
X6.33Y-8.9898
X6.3533Y-2.12
X6.4Y-2.72
X6.4Y-3.14
X6.4Y-3.3
X6.4Y-3.4
X6.4Y-3.5
X6.4Y-3.6
X6.4Y-3.7
X6.4Y-3.8
X6.4Y-3.9
X6.4Y-4.0
X6.4Y-4.1
X6.4Y-4.2
X6.4Y-4.3
X6.4Y-4.4
X6.4Y-4.5
X6.4Y-4.6
X6.4Y-4.7
X6.4Y-4.8
X6.4Y-4.9
X6.4Y-5.0
X6.4Y-5.1
X6.4Y-5.2
X6.4Y-5.3
X6.4Y-5.4
X6.4Y-5.5
X6.4Y-5.6
X6.4Y-5.7
X6.4Y-5.8
X6.4Y-5.9
X6.4Y-6.0
X6.4Y-6.1
X6.4Y-6.2
X6.4Y-6.3
X6.4Y-6.4
X6.4079Y-2.2318
X6.4624Y-2.12
X6.5Y-2.72
X6.5Y-3.14
X6.5Y-3.3
X6.5Y-3.4
X6.5Y-3.5
X6.5Y-3.6
X6.5Y-3.7
X6.5Y-3.8
X6.5Y-3.9
X6.5Y-4.0
X6.5Y-4.1
X6.5Y-4.2
X6.5Y-4.3
X6.5Y-4.4
X6.5Y-4.5
X6.5Y-4.6
X6.5Y-4.7
X6.5Y-4.8
X6.5Y-4.9
X6.5Y-5.0
X6.5Y-5.1
X6.5Y-5.2
X6.5Y-5.3
X6.5Y-5.4
X6.5Y-5.5
X6.5Y-5.6
X6.5Y-5.7
X6.5Y-5.8
X6.5Y-5.9
X6.5Y-6.0
X6.5Y-6.1
X6.5Y-6.2
X6.5Y-6.3
X6.5Y-6.4
X6.5169Y-2.2318
X6.5715Y-2.12
X6.6Y-2.72
X6.6Y-3.14
X6.6Y-3.3
X6.6Y-3.4
X6.6Y-3.5
X6.6Y-3.6
X6.6Y-3.7
X6.6Y-3.8
X6.6Y-3.9
X6.6Y-4.0
X6.6Y-4.1
X6.6Y-4.2
X6.6Y-4.3
X6.6Y-4.4
X6.6Y-4.5
X6.6Y-4.6
X6.6Y-4.7
X6.6Y-4.8
X6.6Y-4.9
X6.6Y-5.0
X6.6Y-5.1
X6.6Y-5.2
X6.6Y-5.3
X6.6Y-5.4
X6.6Y-5.5
X6.6Y-5.6
X6.6Y-5.7
X6.6Y-5.8
X6.6Y-5.9
X6.6Y-6.0
X6.6Y-6.1
X6.6Y-6.2
X6.6Y-6.3
X6.6Y-6.4
X6.626Y-2.2318
X6.7Y-2.72
X6.7Y-3.14
X6.7Y-3.3
X6.7Y-3.4
X6.7Y-3.5
X6.7Y-3.6
X6.7Y-3.7
X6.7Y-3.8
X6.7Y-3.9
X6.7Y-4.0
X6.7Y-4.1
X6.7Y-4.2
X6.7Y-4.3
X6.7Y-4.4
X6.7Y-4.5
X6.7Y-4.6
X6.7Y-4.7
X6.7Y-4.8
X6.7Y-4.9
X6.7Y-5.0
X6.7Y-5.1
X6.7Y-5.2
X6.7Y-5.3
X6.7Y-5.4
X6.7Y-5.5
X6.7Y-5.6
X6.7Y-5.7
X6.7Y-5.8
X6.7Y-5.9
X6.7Y-6.0
X6.7Y-6.1
X6.7Y-6.2
X6.7Y-6.3
X6.7Y-6.4
X6.8Y-2.72
X6.8Y-3.14
X6.8Y-3.3
X6.8Y-3.4
X6.8Y-3.5
X6.8Y-3.6
X6.8Y-3.7
X6.8Y-3.8
X6.8Y-3.9
X6.8Y-4.0
X6.8Y-4.1
X6.8Y-4.2
X6.8Y-4.3
X6.8Y-4.4
X6.8Y-4.5
X6.8Y-4.6
X6.8Y-4.7
X6.8Y-4.8
X6.8Y-4.9
X6.8Y-5.0
X6.8Y-5.1
X6.8Y-5.2
X6.8Y-5.3
X6.8Y-5.4
X6.8Y-5.5
X6.8Y-5.6
X6.8Y-5.7
X6.8Y-5.8
X6.8Y-5.9
X6.8Y-6.0
X6.8Y-6.1
X6.8Y-6.2
X6.8Y-6.3
X6.8Y-6.4
X6.9Y-2.72
X6.9Y-3.14
X6.9Y-3.3
X6.9Y-3.4
X6.9Y-3.5
X6.9Y-3.6
X6.9Y-3.7
X6.9Y-3.8
X6.9Y-3.9
X6.9Y-4.0
X6.9Y-4.1
X6.9Y-4.2
X6.9Y-4.3
X6.9Y-4.4
X6.9Y-4.5
X6.9Y-4.6
X6.9Y-4.7
X6.9Y-4.8
X6.9Y-4.9
X6.9Y-5.0
X6.9Y-5.1
X6.9Y-5.2
X6.9Y-5.3
X6.9Y-5.4
X6.9Y-5.5
X6.9Y-5.6
X6.9Y-5.7
X6.9Y-5.8
X6.9Y-5.9
X6.9Y-6.0
X6.9Y-6.1
X6.9Y-6.2
X6.9Y-6.3
X6.9Y-6.4
X6.93Y-7.0898
X6.93Y-7.1898
X6.93Y-7.2898
X6.93Y-7.3898
X6.93Y-7.4898
X6.93Y-7.5898
X6.93Y-7.6898
X6.93Y-7.7898
X6.93Y-7.8898
X6.93Y-7.9898
X6.93Y-8.0898
X6.93Y-8.1898
X6.93Y-8.2898
X6.93Y-8.3898
X6.93Y-8.4898
X6.93Y-8.5898
X6.93Y-8.6898
X6.93Y-8.7898
X6.93Y-8.8898
X6.93Y-8.9898
X7.0Y-3.3
X7.0Y-3.4
X7.0Y-3.5
X7.0Y-3.6
X7.0Y-3.7
X7.0Y-3.8
X7.0Y-3.9
X7.0Y-4.0
X7.0Y-4.1
X7.0Y-4.2
X7.0Y-4.3
X7.0Y-4.4
X7.0Y-4.5
X7.0Y-4.6
X7.0Y-4.7
X7.0Y-4.8
X7.0Y-4.9
X7.0Y-5.0
X7.0Y-5.1
X7.0Y-5.2
X7.0Y-5.3
X7.0Y-5.4
X7.0Y-5.5
X7.0Y-5.6
X7.0Y-5.7
X7.0Y-5.8
X7.0Y-5.9
X7.0Y-6.0
X7.0Y-6.1
X7.0Y-6.2
X7.0Y-6.3
X7.0Y-6.4
X7.03Y-7.0898
X7.03Y-7.1898
X7.03Y-7.2898
X7.03Y-7.3898
X7.03Y-7.4898
X7.03Y-7.5898
X7.03Y-7.6898
X7.03Y-7.7898
X7.03Y-7.8898
X7.03Y-7.9898
X7.03Y-8.0898
X7.03Y-8.1898
X7.03Y-8.2898
X7.03Y-8.3898
X7.03Y-8.4898
X7.03Y-8.5898
X7.03Y-8.6898
X7.03Y-8.7898
X7.03Y-8.8898
X7.03Y-8.9898
X7.1Y-3.1
X7.1Y-3.2
X7.1Y-3.3
X7.1Y-3.4
X7.1Y-3.5
X7.1Y-3.6
X7.1Y-3.7
X7.1Y-3.8
X7.1Y-3.9
X7.1Y-4.0
X7.1Y-4.1
X7.1Y-4.2
X7.1Y-4.3
X7.1Y-4.4
X7.1Y-4.5
X7.1Y-4.6
X7.1Y-4.7
X7.1Y-4.8
X7.1Y-4.9
X7.1Y-5.0
X7.1Y-5.1
X7.1Y-5.2
X7.1Y-5.3
X7.1Y-5.4
X7.1Y-5.5
X7.1Y-5.6
X7.1Y-5.7
X7.1Y-5.8
X7.1Y-5.9
X7.1Y-6.0
X7.1Y-6.1
X7.1Y-6.2
X7.1Y-6.3
X7.1Y-6.4
X7.13Y-7.0898
X7.13Y-7.1898
X7.13Y-7.2898
X7.13Y-7.3898
X7.13Y-7.4898
X7.13Y-7.5898
X7.13Y-7.6898
X7.13Y-7.7898
X7.13Y-7.8898
X7.13Y-7.9898
X7.13Y-8.0898
X7.13Y-8.1898
X7.13Y-8.2898
X7.13Y-8.3898
X7.13Y-8.4898
X7.13Y-8.5898
X7.13Y-8.6898
X7.13Y-8.7898
X7.13Y-8.8898
X7.13Y-8.9898
X7.2Y-3.1
X7.2Y-3.2
X7.2Y-3.3
X7.2Y-3.4
X7.2Y-3.5
X7.2Y-3.6
X7.2Y-3.7
X7.2Y-3.8
X7.2Y-3.9
X7.2Y-4.0
X7.2Y-4.1
X7.2Y-4.2
X7.2Y-4.3
X7.2Y-4.4
X7.2Y-4.5
X7.2Y-4.6
X7.2Y-4.7
X7.2Y-4.8
X7.2Y-4.9
X7.2Y-5.0
X7.2Y-5.1
X7.2Y-5.2
X7.2Y-5.3
X7.2Y-5.4
X7.2Y-5.5
X7.2Y-5.6
X7.2Y-5.7
X7.2Y-5.8
X7.2Y-5.9
X7.2Y-6.0
X7.2Y-6.1
X7.2Y-6.2
X7.2Y-6.3
X7.2Y-6.4
X7.21Y-2.5
X7.21Y-2.6
X7.3Y-3.1
X7.3Y-3.2
X7.3Y-3.3
X7.3Y-3.4
X7.3Y-3.5
X7.3Y-3.6
X7.3Y-3.7
X7.3Y-3.8
X7.3Y-3.9
X7.3Y-4.0
X7.3Y-4.1
X7.3Y-4.2
X7.3Y-4.3
X7.3Y-4.4
X7.3Y-4.5
X7.3Y-4.6
X7.3Y-4.7
X7.3Y-4.8
X7.3Y-4.9
X7.3Y-5.0
X7.3Y-5.1
X7.3Y-5.2
X7.3Y-5.3
X7.3Y-5.4
X7.3Y-5.5
X7.3Y-5.6
X7.3Y-5.7
X7.3Y-5.8
X7.3Y-5.9
X7.3Y-6.0
X7.3Y-6.1
X7.3Y-6.2
X7.3Y-6.3
X7.3Y-6.4
X7.32Y-2.87
X7.33Y-6.8898
X7.33Y-6.9898
X7.33Y-7.0898
X7.33Y-7.1898
X7.33Y-7.2898
X7.33Y-7.3898
X7.33Y-7.4898
X7.33Y-7.5898
X7.33Y-7.6898
X7.33Y-7.7898
X7.33Y-7.8898
X7.33Y-7.9898
X7.33Y-8.0898
X7.33Y-8.1898
X7.33Y-8.2898
X7.33Y-8.3898
X7.33Y-8.4898
X7.33Y-8.5898
X7.33Y-8.6898
X7.33Y-8.7898
X7.33Y-8.8898
X7.33Y-8.9898
X7.4Y-3.1
X7.4Y-3.2
X7.4Y-3.3
X7.4Y-3.4
X7.4Y-3.5
X7.4Y-3.6
X7.4Y-3.7
X7.4Y-3.8
X7.4Y-3.9
X7.4Y-4.0
X7.4Y-4.1
X7.4Y-4.2
X7.4Y-4.3
X7.4Y-4.4
X7.4Y-4.5
X7.4Y-4.6
X7.4Y-4.7
X7.4Y-4.8
X7.4Y-4.9
X7.4Y-5.0
X7.4Y-5.1
X7.4Y-5.2
X7.4Y-5.3
X7.4Y-5.4
X7.4Y-5.5
X7.4Y-5.6
X7.4Y-5.7
X7.4Y-5.8
X7.4Y-5.9
X7.4Y-6.0
X7.4Y-6.1
X7.4Y-6.2
X7.4Y-6.3
X7.4Y-6.4
X7.42Y-2.87
X7.5Y-3.1
X7.5Y-3.2
X7.5Y-3.3
X7.5Y-3.4
X7.5Y-3.5
X7.5Y-3.6
X7.5Y-3.7
X7.5Y-3.8
X7.5Y-3.9
X7.5Y-4.0
X7.5Y-4.1
X7.5Y-4.2
X7.5Y-4.3
X7.5Y-4.4
X7.5Y-4.5
X7.5Y-4.6
X7.5Y-4.7
X7.5Y-4.8
X7.5Y-4.9
X7.5Y-5.0
X7.5Y-5.1
X7.5Y-5.2
X7.5Y-5.3
X7.5Y-5.4
X7.5Y-5.5
X7.5Y-5.6
X7.5Y-5.7
X7.5Y-5.8
X7.5Y-5.9
X7.5Y-6.0
X7.5Y-6.1
X7.5Y-6.2
X7.5Y-6.3
X7.5Y-6.4
X7.58Y-6.8898
X7.58Y-6.9898
X7.58Y-7.0898
X7.58Y-7.1898
X7.58Y-7.2898
X7.58Y-7.3898
X7.58Y-7.4898
X7.58Y-7.5898
X7.58Y-7.6898
X7.58Y-7.7898
X7.58Y-7.8898
X7.58Y-7.9898
X7.58Y-8.0898
X7.58Y-8.1898
X7.58Y-8.2898
X7.58Y-8.3898
X7.58Y-8.4898
X7.58Y-8.5898
X7.58Y-8.6898
X7.58Y-8.7898
X7.58Y-8.8898
X7.58Y-8.9898
X7.6Y-3.1
X7.6Y-3.2
X7.6Y-3.3
X7.6Y-3.4
X7.6Y-3.5
X7.6Y-3.6
X7.6Y-3.7
X7.6Y-3.8
X7.6Y-3.9
X7.6Y-4.0
X7.6Y-4.1
X7.6Y-4.2
X7.6Y-4.3
X7.6Y-4.4
X7.6Y-4.5
X7.6Y-4.6
X7.6Y-4.7
X7.6Y-4.8
X7.6Y-4.9
X7.6Y-5.0
X7.6Y-5.1
X7.6Y-5.2
X7.6Y-5.3
X7.6Y-5.4
X7.6Y-5.5
X7.6Y-5.6
X7.6Y-5.7
X7.6Y-5.8
X7.6Y-5.9
X7.6Y-6.0
X7.6Y-6.1
X7.6Y-6.2
X7.6Y-6.3
X7.6Y-6.4
X7.62Y-2.87
X7.7Y-3.1
X7.7Y-3.2
X7.7Y-3.3
X7.7Y-3.4
X7.7Y-3.5
X7.7Y-3.6
X7.7Y-3.7
X7.7Y-3.8
X7.7Y-3.9
X7.7Y-4.0
X7.7Y-4.1
X7.7Y-4.2
X7.7Y-4.3
X7.7Y-4.4
X7.7Y-4.5
X7.7Y-4.6
X7.7Y-4.7
X7.7Y-4.8
X7.7Y-4.9
X7.7Y-5.0
X7.7Y-5.1
X7.7Y-5.2
X7.7Y-5.3
X7.7Y-5.4
X7.7Y-5.5
X7.7Y-5.6
X7.7Y-5.7
X7.7Y-5.8
X7.7Y-5.9
X7.7Y-6.0
X7.7Y-6.1
X7.7Y-6.2
X7.7Y-6.3
X7.7Y-6.4
X7.72Y-2.87
X7.8Y-3.1
X7.8Y-3.2
X7.8Y-3.3
X7.8Y-3.4
X7.8Y-3.5
X7.8Y-3.6
X7.8Y-3.7
X7.8Y-3.8
X7.8Y-3.9
X7.8Y-4.0
X7.8Y-4.1
X7.8Y-4.2
X7.8Y-4.3
X7.8Y-4.4
X7.8Y-4.5
X7.8Y-4.6
X7.8Y-4.7
X7.8Y-4.8
X7.8Y-4.9
X7.8Y-5.0
X7.8Y-5.1
X7.8Y-5.2
X7.8Y-5.3
X7.8Y-5.4
X7.8Y-5.5
X7.8Y-5.6
X7.8Y-5.7
X7.8Y-5.8
X7.8Y-5.9
X7.8Y-6.0
X7.8Y-6.1
X7.8Y-6.2
X7.8Y-6.3
X7.8Y-6.4
X7.82Y-6.8898
X7.82Y-6.9898
X7.82Y-7.0898
X7.82Y-7.1898
X7.82Y-7.2898
X7.82Y-7.3898
X7.82Y-7.4898
X7.82Y-7.5898
X7.82Y-7.6898
X7.82Y-7.7898
X7.82Y-7.8898
X7.82Y-7.9898
X7.82Y-8.0898
X7.82Y-8.1898
X7.82Y-8.2898
X7.82Y-8.3898
X7.82Y-8.4898
X7.82Y-8.5898
X7.82Y-8.6898
X7.82Y-8.7898
X7.82Y-8.8898
X7.82Y-8.9898
X7.84Y-2.5
X7.84Y-2.6
X7.9Y-3.1
X7.9Y-3.2
X7.9Y-3.3
X7.9Y-3.4
X7.9Y-3.5
X7.9Y-3.6
X7.9Y-3.7
X7.9Y-3.8
X7.9Y-3.9
X7.9Y-4.0
X7.9Y-4.1
X7.9Y-4.2
X7.9Y-4.3
X7.9Y-4.4
X7.9Y-4.5
X7.9Y-4.6
X7.9Y-4.7
X7.9Y-4.8
X7.9Y-4.9
X7.9Y-5.0
X7.9Y-5.1
X7.9Y-5.2
X7.9Y-5.3
X7.9Y-5.4
X7.9Y-5.5
X7.9Y-5.6
X7.9Y-5.7
X7.9Y-5.8
X7.9Y-5.9
X7.9Y-6.0
X7.9Y-6.1
X7.9Y-6.2
X7.9Y-6.3
X7.9Y-6.4
X7.96Y-2.87
X8.0Y-3.1
X8.0Y-3.2
X8.0Y-3.3
X8.0Y-3.4
X8.0Y-3.5
X8.0Y-3.6
X8.0Y-3.7
X8.0Y-3.8
X8.0Y-3.9
X8.0Y-4.0
X8.0Y-4.1
X8.0Y-4.2
X8.0Y-4.3
X8.0Y-4.4
X8.0Y-4.5
X8.0Y-4.6
X8.0Y-4.7
X8.0Y-4.8
X8.0Y-4.9
X8.0Y-5.0
X8.0Y-5.1
X8.0Y-5.2
X8.0Y-5.3
X8.0Y-5.4
X8.0Y-5.5
X8.0Y-5.6
X8.0Y-5.7
X8.0Y-5.8
X8.0Y-5.9
X8.0Y-6.0
X8.0Y-6.1
X8.0Y-6.2
X8.0Y-6.3
X8.0Y-6.4
X8.06Y-2.87
X8.1Y-3.1
X8.1Y-3.2
X8.1Y-3.3
X8.1Y-3.4
X8.1Y-3.5
X8.1Y-3.6
X8.1Y-3.7
X8.1Y-3.8
X8.1Y-3.9
X8.1Y-4.0
X8.1Y-4.1
X8.1Y-4.2
X8.1Y-4.3
X8.1Y-4.4
X8.1Y-4.5
X8.1Y-4.6
X8.1Y-4.7
X8.1Y-4.8
X8.1Y-4.9
X8.1Y-5.0
X8.1Y-5.1
X8.1Y-5.2
X8.1Y-5.3
X8.1Y-5.4
X8.1Y-5.5
X8.1Y-5.6
X8.1Y-5.7
X8.1Y-5.8
X8.1Y-5.9
X8.1Y-6.0
X8.1Y-6.1
X8.1Y-6.2
X8.1Y-6.3
X8.1Y-6.4
X8.2Y-3.1
X8.2Y-3.2
X8.2Y-3.3
X8.2Y-3.4
X8.2Y-3.5
X8.2Y-3.6
X8.2Y-3.7
X8.2Y-3.8
X8.2Y-3.9
X8.2Y-4.0
X8.2Y-4.1
X8.2Y-4.2
X8.2Y-4.3
X8.2Y-4.4
X8.2Y-4.5
X8.2Y-4.6
X8.2Y-4.7
X8.2Y-4.8
X8.2Y-4.9
X8.2Y-5.0
X8.2Y-5.1
X8.2Y-5.2
X8.2Y-5.3
X8.2Y-5.4
X8.2Y-5.5
X8.2Y-5.6
X8.2Y-5.7
X8.2Y-5.8
X8.2Y-5.9
X8.2Y-6.0
X8.2Y-6.1
X8.2Y-6.2
X8.2Y-6.3
X8.2Y-6.4
X8.26Y-2.87
X8.3Y-3.1
X8.3Y-3.2
X8.3Y-3.3
X8.3Y-3.4
X8.3Y-3.5
X8.3Y-3.6
X8.3Y-3.7
X8.3Y-3.8
X8.3Y-3.9
X8.3Y-4.0
X8.3Y-4.1
X8.3Y-4.2
X8.3Y-4.3
X8.3Y-4.4
X8.3Y-4.5
X8.3Y-4.6
X8.3Y-4.7
X8.3Y-4.8
X8.3Y-4.9
X8.3Y-5.0
X8.3Y-5.1
X8.3Y-5.2
X8.3Y-5.3
X8.3Y-5.4
X8.3Y-5.5
X8.3Y-5.6
X8.3Y-5.7
X8.3Y-5.8
X8.3Y-5.9
X8.3Y-6.0
X8.3Y-6.1
X8.3Y-6.2
X8.3Y-6.3
X8.3Y-6.4
X8.3Y-6.9
X8.3Y-7.0
X8.3Y-7.28
X8.3Y-7.38
X8.36Y-2.87
X8.4Y-3.1
X8.4Y-3.2
X8.4Y-3.3
X8.4Y-3.4
X8.4Y-3.5
X8.4Y-3.6
X8.4Y-3.7
X8.4Y-3.8
X8.4Y-3.9
X8.4Y-4.0
X8.4Y-4.1
X8.4Y-4.2
X8.4Y-4.3
X8.4Y-4.4
X8.4Y-4.5
X8.4Y-4.6
X8.4Y-4.7
X8.4Y-4.8
X8.4Y-4.9
X8.4Y-5.0
X8.4Y-5.1
X8.4Y-5.2
X8.4Y-5.3
X8.4Y-5.4
X8.4Y-5.5
X8.4Y-5.6
X8.4Y-5.7
X8.4Y-5.8
X8.4Y-5.9
X8.4Y-6.0
X8.4Y-6.1
X8.4Y-6.2
X8.4Y-6.3
X8.4Y-6.4
X8.41Y-7.59
X8.41Y-7.69
X8.41Y-7.79
X8.41Y-7.89
X8.41Y-7.99
X8.41Y-8.09
X8.41Y-8.19
X8.41Y-8.29
X8.41Y-8.49
X8.41Y-8.59
X8.41Y-8.69
X8.41Y-8.79
X8.41Y-8.89
X8.41Y-8.99
X8.46Y-6.9
X8.46Y-7.0
X8.49Y-2.5
X8.49Y-2.6
X8.5Y-3.1
X8.5Y-3.2
X8.5Y-3.3
X8.5Y-3.4
X8.5Y-3.5
X8.5Y-3.6
X8.5Y-3.7
X8.5Y-3.8
X8.5Y-3.9
X8.5Y-4.0
X8.5Y-4.1
X8.5Y-4.2
X8.5Y-4.3
X8.5Y-4.4
X8.5Y-4.5
X8.5Y-4.6
X8.5Y-4.7
X8.5Y-4.8
X8.5Y-4.9
X8.5Y-5.0
X8.5Y-5.1
X8.5Y-5.2
X8.5Y-5.3
X8.5Y-5.4
X8.5Y-5.5
X8.5Y-5.6
X8.5Y-5.7
X8.5Y-5.8
X8.5Y-5.9
X8.5Y-6.0
X8.5Y-6.1
X8.5Y-6.2
X8.5Y-6.3
X8.5Y-6.4
X8.6Y-2.87
X8.6Y-3.1
X8.6Y-3.2
X8.6Y-3.3
X8.6Y-3.4
X8.6Y-3.5
X8.6Y-3.6
X8.6Y-3.7
X8.6Y-3.8
X8.6Y-3.9
X8.6Y-4.0
X8.6Y-4.1
X8.6Y-4.2
X8.6Y-4.3
X8.6Y-4.4
X8.6Y-4.5
X8.6Y-4.6
X8.6Y-4.7
X8.6Y-4.8
X8.6Y-4.9
X8.6Y-5.0
X8.6Y-5.1
X8.6Y-5.2
X8.6Y-5.3
X8.6Y-5.4
X8.6Y-5.5
X8.6Y-5.6
X8.6Y-5.7
X8.6Y-5.8
X8.6Y-5.9
X8.6Y-6.0
X8.6Y-6.1
X8.6Y-6.2
X8.6Y-6.3
X8.6Y-6.4
X8.7Y-2.87
X8.7Y-3.1
X8.7Y-3.2
X8.7Y-3.3
X8.7Y-3.4
X8.7Y-3.5
X8.7Y-3.6
X8.7Y-3.7
X8.7Y-3.8
X8.7Y-3.9
X8.7Y-4.0
X8.7Y-4.1
X8.7Y-4.2
X8.7Y-4.3
X8.7Y-4.4
X8.7Y-4.5
X8.7Y-4.6
X8.7Y-4.7
X8.7Y-4.8
X8.7Y-4.9
X8.7Y-5.0
X8.7Y-5.1
X8.7Y-5.2
X8.7Y-5.3
X8.7Y-5.4
X8.7Y-5.5
X8.7Y-5.6
X8.7Y-5.7
X8.7Y-5.8
X8.7Y-5.9
X8.7Y-6.0
X8.7Y-6.1
X8.7Y-6.2
X8.7Y-6.3
X8.7Y-6.4
X8.71Y-7.59
X8.71Y-7.69
X8.71Y-7.79
X8.71Y-7.89
X8.71Y-7.99
X8.71Y-8.09
X8.71Y-8.19
X8.71Y-8.29
X8.71Y-8.49
X8.71Y-8.59
X8.71Y-8.69
X8.71Y-8.79
X8.71Y-8.89
X8.71Y-8.99
X8.75Y-6.6
X8.8Y-3.1
X8.8Y-3.2
X8.8Y-3.3
X8.8Y-3.4
X8.8Y-3.5
X8.8Y-3.6
X8.8Y-3.7
X8.8Y-3.8
X8.8Y-3.9
X8.8Y-4.0
X8.8Y-4.1
X8.8Y-4.2
X8.8Y-4.3
X8.8Y-4.4
X8.8Y-4.5
X8.8Y-4.6
X8.8Y-4.7
X8.8Y-4.8
X8.8Y-4.9
X8.8Y-5.0
X8.8Y-5.1
X8.8Y-5.2
X8.8Y-5.3
X8.8Y-5.4
X8.8Y-5.5
X8.8Y-5.6
X8.8Y-5.7
X8.8Y-5.8
X8.8Y-5.9
X8.8Y-6.0
X8.8Y-6.1
X8.8Y-6.2
X8.8Y-6.3
X8.8Y-6.4
X8.85Y-6.6
X8.9Y-2.87
X8.9Y-3.1
X8.9Y-3.2
X8.9Y-3.3
X8.9Y-3.4
X8.9Y-3.5
X8.9Y-3.6
X8.9Y-3.7
X8.9Y-3.8
X8.9Y-3.9
X8.9Y-4.0
X8.9Y-4.1
X8.9Y-4.2
X8.9Y-4.3
X8.9Y-4.4
X8.9Y-4.5
X8.9Y-4.6
X8.9Y-4.7
X8.9Y-4.8
X8.9Y-4.9
X8.9Y-5.0
X8.9Y-5.1
X8.9Y-5.2
X8.9Y-5.3
X8.9Y-5.4
X8.9Y-5.5
X8.9Y-5.6
X8.9Y-5.7
X8.9Y-5.8
X8.9Y-5.9
X8.9Y-6.0
X8.9Y-6.1
X8.9Y-6.2
X8.9Y-6.3
X8.9Y-6.4
X8.95Y-6.6
X9.0Y-2.87
X9.0Y-3.1
X9.0Y-3.2
X9.0Y-3.3
X9.0Y-3.4
X9.0Y-3.5
X9.0Y-3.6
X9.0Y-3.7
X9.0Y-3.8
X9.0Y-3.9
X9.0Y-4.0
X9.0Y-4.1
X9.0Y-4.2
X9.0Y-4.3
X9.0Y-4.4
X9.0Y-4.5
X9.0Y-4.6
X9.0Y-4.7
X9.0Y-4.8
X9.0Y-4.9
X9.0Y-5.0
X9.0Y-5.1
X9.0Y-5.2
X9.0Y-5.3
X9.0Y-5.4
X9.0Y-5.5
X9.0Y-5.6
X9.0Y-5.7
X9.0Y-5.8
X9.0Y-5.9
X9.0Y-6.0
X9.0Y-6.1
X9.0Y-6.2
X9.0Y-6.3
X9.0Y-6.4
X9.05Y-6.6
X9.1Y-3.5
X9.1Y-3.6
X9.1Y-3.7
X9.1Y-3.8
X9.1Y-3.9
X9.1Y-4.0
X9.1Y-4.1
X9.1Y-4.2
X9.1Y-4.3
X9.1Y-4.4
X9.1Y-4.5
X9.1Y-4.6
X9.1Y-4.7
X9.1Y-4.8
X9.1Y-4.9
X9.1Y-5.0
X9.1Y-5.1
X9.1Y-5.2
X9.1Y-5.3
X9.1Y-5.4
X9.1Y-5.5
X9.1Y-5.6
X9.1Y-5.7
X9.1Y-5.8
X9.1Y-5.9
X9.1Y-6.0
X9.1Y-6.1
X9.1Y-6.2
X9.1Y-6.3
X9.1Y-6.4
X9.15Y-6.6
X9.2Y-2.6688
X9.2Y-3.3488
X9.2Y-3.5
X9.2Y-3.6
X9.2Y-3.7
X9.2Y-3.8
X9.2Y-3.9
X9.2Y-4.0
X9.2Y-4.1
X9.2Y-4.2
X9.2Y-4.3
X9.2Y-4.4
X9.2Y-4.5
X9.2Y-4.6
X9.2Y-4.7
X9.2Y-4.8
X9.2Y-4.9
X9.2Y-5.0
X9.2Y-5.1
X9.2Y-5.2
X9.2Y-5.3
X9.2Y-5.4
X9.2Y-5.5
X9.2Y-5.6
X9.2Y-5.7
X9.2Y-5.8
X9.2Y-5.9
X9.2Y-6.0
X9.2Y-6.1
X9.2Y-6.2
X9.2Y-6.3
X9.2Y-6.4
X9.25Y-6.6
X9.3Y-2.6688
X9.3Y-3.3488
X9.3Y-3.5
X9.3Y-3.6
X9.3Y-3.7
X9.3Y-3.8
X9.3Y-3.9
X9.3Y-4.0
X9.3Y-4.1
X9.3Y-4.2
X9.3Y-4.3
X9.3Y-4.4
X9.3Y-4.5
X9.3Y-4.6
X9.3Y-4.7
X9.3Y-4.8
X9.3Y-4.9
X9.3Y-5.0
X9.3Y-5.1
X9.3Y-5.2
X9.3Y-5.3
X9.3Y-5.4
X9.3Y-5.5
X9.3Y-5.6
X9.3Y-5.7
X9.3Y-5.8
X9.3Y-5.9
X9.3Y-6.0
X9.3Y-6.1
X9.3Y-6.2
X9.3Y-6.3
X9.3Y-6.4
X9.35Y-6.6
X9.4Y-2.6688
X9.4Y-3.3488
X9.4Y-3.5
X9.4Y-3.6
X9.4Y-3.7
X9.4Y-3.8
X9.4Y-3.9
X9.4Y-4.0
X9.4Y-4.1
X9.4Y-4.2
X9.4Y-4.3
X9.4Y-4.4
X9.4Y-4.5
X9.4Y-4.6
X9.4Y-4.7
X9.4Y-4.8
X9.4Y-4.9
X9.4Y-5.0
X9.4Y-5.1
X9.4Y-5.2
X9.4Y-5.3
X9.4Y-5.4
X9.4Y-5.5
X9.4Y-5.6
X9.4Y-5.7
X9.4Y-5.8
X9.4Y-5.9
X9.4Y-6.0
X9.4Y-6.1
X9.4Y-6.2
X9.4Y-6.3
X9.4Y-6.4
X9.45Y-6.6
X9.5Y-2.6688
X9.5Y-3.3488
X9.5Y-3.5
X9.5Y-3.6
X9.5Y-3.7
X9.5Y-3.8
X9.5Y-3.9
X9.5Y-4.0
X9.5Y-4.1
X9.5Y-4.2
X9.5Y-4.3
X9.5Y-4.4
X9.5Y-4.5
X9.5Y-4.6
X9.5Y-4.7
X9.5Y-4.8
X9.5Y-4.9
X9.5Y-5.0
X9.5Y-5.1
X9.5Y-5.2
X9.5Y-5.3
X9.5Y-5.4
X9.5Y-5.5
X9.5Y-5.6
X9.5Y-5.7
X9.5Y-5.8
X9.5Y-5.9
X9.5Y-6.0
X9.5Y-6.1
X9.5Y-6.2
X9.5Y-6.3
X9.5Y-6.4
X9.6Y-3.5
X9.6Y-3.6
X9.6Y-3.7
X9.6Y-3.8
X9.6Y-3.9
X9.6Y-4.0
X9.6Y-4.1
X9.6Y-4.2
X9.6Y-4.3
X9.6Y-4.4
X9.6Y-4.5
X9.6Y-4.6
X9.6Y-4.7
X9.6Y-4.8
X9.6Y-4.9
X9.6Y-5.0
X9.6Y-5.1
X9.6Y-5.2
X9.6Y-5.3
X9.6Y-5.4
X9.6Y-5.5
X9.6Y-5.6
X9.6Y-5.7
X9.6Y-5.8
X9.6Y-5.9
X9.6Y-6.0
X9.6Y-6.1
X9.6Y-6.2
X9.6Y-6.3
X9.6Y-6.4
X9.7Y-3.5
X9.7Y-3.6
X9.7Y-3.7
X9.7Y-3.8
X9.7Y-3.9
X9.7Y-4.0
X9.7Y-4.1
X9.7Y-4.2
X9.7Y-4.3
X9.7Y-4.4
X9.7Y-4.5
X9.7Y-4.6
X9.7Y-4.7
X9.7Y-4.8
X9.7Y-4.9
X9.7Y-5.0
X9.7Y-5.1
X9.7Y-5.2
X9.7Y-5.3
X9.7Y-5.4
X9.7Y-5.5
X9.7Y-5.6
X9.7Y-5.7
X9.7Y-5.8
X9.7Y-5.9
X9.7Y-6.0
X9.7Y-6.1
X9.7Y-6.2
X9.7Y-6.3
X9.7Y-6.4
X9.72Y-6.6
X9.8Y-3.35
X9.8Y-3.5
X9.8Y-3.6
X9.8Y-3.7
X9.8Y-3.8
X9.8Y-3.9
X9.8Y-4.0
X9.8Y-4.1
X9.8Y-4.2
X9.8Y-4.3
X9.8Y-4.4
X9.8Y-4.5
X9.8Y-4.6
X9.8Y-4.7
X9.8Y-4.8
X9.8Y-4.9
X9.8Y-5.0
X9.8Y-5.1
X9.8Y-5.2
X9.8Y-5.3
X9.8Y-5.4
X9.8Y-5.5
X9.8Y-5.6
X9.8Y-5.7
X9.8Y-5.8
X9.8Y-5.9
X9.8Y-6.0
X9.8Y-6.1
X9.8Y-6.2
X9.8Y-6.3
X9.8Y-6.4
X9.82Y-6.6
X9.9Y-3.35
X9.9Y-3.5
X9.9Y-3.6
X9.9Y-3.7
X9.9Y-3.8
X9.9Y-3.9
X9.9Y-4.0
X9.9Y-4.1
X9.9Y-4.2
X9.9Y-4.3
X9.9Y-4.4
X9.9Y-4.5
X9.9Y-4.6
X9.9Y-4.7
X9.9Y-4.8
X9.9Y-4.9
X9.9Y-5.0
X9.9Y-5.1
X9.9Y-5.2
X9.9Y-5.3
X9.9Y-5.4
X9.9Y-5.5
X9.9Y-5.6
X9.9Y-5.7
X9.9Y-5.8
X9.9Y-5.9
X9.9Y-6.0
X9.9Y-6.1
X9.9Y-6.2
X9.9Y-6.3
X9.9Y-6.4
X9.92Y-6.6
X10.0Y-3.35
X10.0Y-3.5
X10.0Y-3.6
X10.0Y-3.7
X10.0Y-3.8
X10.0Y-3.9
X10.0Y-4.0
X10.0Y-4.1
X10.0Y-4.2
X10.0Y-4.3
X10.0Y-4.4
X10.0Y-4.5
X10.0Y-4.6
X10.0Y-4.7
X10.0Y-4.8
X10.0Y-4.9
X10.0Y-5.0
X10.0Y-5.1
X10.0Y-5.2
X10.0Y-5.3
X10.0Y-5.4
X10.0Y-5.5
X10.0Y-5.6
X10.0Y-5.7
X10.0Y-5.8
X10.0Y-5.9
X10.0Y-6.0
X10.0Y-6.1
X10.0Y-6.2
X10.0Y-6.3
X10.0Y-6.4
X10.02Y-6.6
X10.1Y-3.5
X10.1Y-3.6
X10.1Y-3.7
X10.1Y-3.8
X10.1Y-3.9
X10.1Y-4.0
X10.1Y-4.1
X10.1Y-4.2
X10.1Y-4.3
X10.1Y-4.4
X10.1Y-4.5
X10.1Y-4.6
X10.1Y-4.7
X10.1Y-4.8
X10.1Y-4.9
X10.1Y-5.0
X10.1Y-5.1
X10.1Y-5.2
X10.1Y-5.3
X10.1Y-5.4
X10.1Y-5.5
X10.1Y-5.6
X10.1Y-5.7
X10.1Y-5.8
X10.1Y-5.9
X10.1Y-6.0
X10.1Y-6.1
X10.1Y-6.2
X10.1Y-6.3
X10.1Y-6.4
X10.2Y-3.35
X10.2Y-3.5
X10.2Y-3.6
X10.2Y-3.7
X10.2Y-3.8
X10.2Y-3.9
X10.2Y-4.0
X10.2Y-4.1
X10.2Y-4.2
X10.2Y-4.3
X10.2Y-4.4
X10.2Y-4.5
X10.2Y-4.6
X10.2Y-4.7
X10.2Y-4.8
X10.2Y-4.9
X10.2Y-5.0
X10.2Y-5.1
X10.2Y-5.2
X10.2Y-5.3
X10.2Y-5.4
X10.2Y-5.5
X10.2Y-5.6
X10.2Y-5.7
X10.2Y-5.8
X10.2Y-5.9
X10.2Y-6.0
X10.2Y-6.1
X10.2Y-6.2
X10.2Y-6.3
X10.2Y-6.4
X10.27Y-6.6
X10.3Y-3.35
X10.3Y-3.5
X10.3Y-3.6
X10.3Y-3.7
X10.3Y-3.8
X10.3Y-3.9
X10.3Y-4.0
X10.3Y-4.1
X10.3Y-4.2
X10.3Y-4.3
X10.3Y-4.4
X10.3Y-4.5
X10.3Y-4.6
X10.3Y-4.7
X10.3Y-4.8
X10.3Y-4.9
X10.3Y-5.0
X10.3Y-5.1
X10.3Y-5.2
X10.3Y-5.3
X10.3Y-5.4
X10.3Y-5.5
X10.3Y-5.6
X10.3Y-5.7
X10.3Y-5.8
X10.3Y-5.9
X10.3Y-6.0
X10.3Y-6.1
X10.3Y-6.2
X10.3Y-6.3
X10.3Y-6.4
X10.37Y-6.6
X10.4Y-3.35
X10.4Y-3.5
X10.4Y-3.6
X10.4Y-3.7
X10.4Y-3.8
X10.4Y-3.9
X10.4Y-4.0
X10.4Y-4.1
X10.4Y-4.2
X10.4Y-4.3
X10.4Y-4.4
X10.4Y-4.5
X10.4Y-4.6
X10.4Y-4.7
X10.4Y-4.8
X10.4Y-4.9
X10.4Y-5.0
X10.4Y-5.1
X10.4Y-5.2
X10.4Y-5.3
X10.4Y-5.4
X10.4Y-5.5
X10.4Y-5.6
X10.4Y-5.7
X10.4Y-5.8
X10.4Y-5.9
X10.4Y-6.0
X10.4Y-6.1
X10.4Y-6.2
X10.4Y-6.3
X10.4Y-6.4
X10.47Y-6.6
X10.5Y-3.5
X10.5Y-3.6
X10.5Y-3.7
X10.5Y-3.8
X10.5Y-3.9
X10.5Y-4.0
X10.5Y-4.1
X10.5Y-4.2
X10.5Y-4.3
X10.5Y-4.4
X10.5Y-4.5
X10.5Y-4.6
X10.5Y-4.7
X10.5Y-4.8
X10.5Y-4.9
X10.5Y-5.0
X10.5Y-5.1
X10.5Y-5.2
X10.5Y-5.3
X10.5Y-5.4
X10.5Y-5.5
X10.5Y-5.6
X10.5Y-5.7
X10.5Y-5.8
X10.5Y-5.9
X10.5Y-6.0
X10.5Y-6.1
X10.5Y-6.2
X10.5Y-6.3
X10.5Y-6.4
X10.6Y-3.5
X10.6Y-3.6
X10.6Y-3.7
X10.6Y-3.8
X10.6Y-3.9
X10.6Y-4.0
X10.6Y-4.1
X10.6Y-4.2
X10.6Y-4.3
X10.6Y-4.4
X10.6Y-4.5
X10.6Y-4.6
X10.6Y-4.7
X10.6Y-4.8
X10.6Y-4.9
X10.6Y-5.0
X10.6Y-5.1
X10.6Y-5.2
X10.6Y-5.3
X10.6Y-5.4
X10.6Y-5.5
X10.6Y-5.6
X10.6Y-5.7
X10.6Y-5.8
X10.6Y-5.9
X10.6Y-6.0
X10.6Y-6.1
X10.6Y-6.2
X10.6Y-6.3
X10.6Y-6.4
X10.61Y-7.23
X10.61Y-7.33
X10.61Y-7.43
X10.61Y-7.53
X10.61Y-7.63
X10.61Y-7.73
X10.61Y-7.83
X10.61Y-7.93
X10.61Y-8.03
X10.61Y-8.13
X10.61Y-8.29
X10.61Y-8.39
X10.61Y-8.49
X10.61Y-8.59
X10.61Y-8.69
X10.61Y-8.79
X10.61Y-8.89
X10.61Y-8.99
X10.7Y-3.5
X10.7Y-3.6
X10.7Y-3.7
X10.7Y-3.8
X10.7Y-3.9
X10.7Y-4.0
X10.7Y-4.1
X10.7Y-4.2
X10.7Y-4.3
X10.7Y-4.4
X10.7Y-4.5
X10.7Y-4.6
X10.7Y-4.7
X10.7Y-4.8
X10.7Y-4.9
X10.7Y-5.0
X10.7Y-5.1
X10.7Y-5.2
X10.7Y-5.3
X10.7Y-5.4
X10.7Y-5.5
X10.7Y-5.6
X10.7Y-5.7
X10.7Y-5.8
X10.7Y-5.9
X10.7Y-6.0
X10.7Y-6.1
X10.7Y-6.2
X10.7Y-6.3
X10.7Y-6.4
X10.8Y-3.25
X10.8Y-3.35
X10.8Y-3.5
X10.8Y-3.6
X10.8Y-3.7
X10.8Y-3.8
X10.8Y-3.9
X10.8Y-4.0
X10.8Y-4.1
X10.8Y-4.2
X10.8Y-4.3
X10.8Y-4.4
X10.8Y-4.5
X10.8Y-4.6
X10.8Y-4.7
X10.8Y-4.8
X10.8Y-4.9
X10.8Y-5.0
X10.8Y-5.1
X10.8Y-5.2
X10.8Y-5.3
X10.8Y-5.4
X10.8Y-5.5
X10.8Y-5.6
X10.8Y-5.7
X10.8Y-5.8
X10.8Y-5.9
X10.8Y-6.0
X10.8Y-6.1
X10.8Y-6.2
X10.8Y-6.3
X10.8Y-6.4
X10.83Y-6.61
X10.83Y-6.71
X10.8536Y-2.3898
X10.9Y-3.25
X10.9Y-3.35
X10.9Y-3.5
X10.9Y-3.6
X10.9Y-3.7
X10.9Y-3.8
X10.9Y-3.9
X10.9Y-4.0
X10.9Y-4.1
X10.9Y-4.2
X10.9Y-4.3
X10.9Y-4.4
X10.9Y-4.5
X10.9Y-4.6
X10.9Y-4.7
X10.9Y-4.8
X10.9Y-4.9
X10.9Y-5.0
X10.9Y-5.1
X10.9Y-5.2
X10.9Y-5.3
X10.9Y-5.4
X10.9Y-5.5
X10.9Y-5.6
X10.9Y-5.7
X10.9Y-5.8
X10.9Y-5.9
X10.9Y-6.0
X10.9Y-6.1
X10.9Y-6.2
X10.9Y-6.3
X10.9Y-6.4
X10.94Y-7.23
X10.94Y-7.33
X10.94Y-7.43
X10.94Y-7.53
X10.94Y-7.63
X10.94Y-7.73
X10.94Y-7.83
X10.94Y-7.93
X10.94Y-8.03
X10.94Y-8.13
X10.94Y-8.29
X10.94Y-8.39
X10.94Y-8.49
X10.94Y-8.59
X10.94Y-8.69
X10.94Y-8.79
X10.94Y-8.89
X10.94Y-8.99
X10.9536Y-2.3898
X11.0Y-3.25
X11.0Y-3.35
X11.0Y-3.5
X11.0Y-3.6
X11.0Y-3.7
X11.0Y-3.8
X11.0Y-3.9
X11.0Y-4.0
X11.0Y-4.1
X11.0Y-4.2
X11.0Y-4.3
X11.0Y-4.4
X11.0Y-4.5
X11.0Y-4.6
X11.0Y-4.7
X11.0Y-4.8
X11.0Y-4.9
X11.0Y-5.0
X11.0Y-5.1
X11.0Y-5.2
X11.0Y-5.3
X11.0Y-5.4
X11.0Y-5.5
X11.0Y-5.6
X11.0Y-5.7
X11.0Y-5.8
X11.0Y-5.9
X11.0Y-6.0
X11.0Y-6.1
X11.0Y-6.2
X11.0Y-6.3
X11.0Y-6.4
X11.1Y-3.25
X11.1Y-3.35
X11.1Y-3.5
X11.1Y-3.6
X11.1Y-3.7
X11.1Y-3.8
X11.1Y-3.9
X11.1Y-4.0
X11.1Y-4.1
X11.1Y-4.2
X11.1Y-4.3
X11.1Y-4.4
X11.1Y-4.5
X11.1Y-4.6
X11.1Y-4.7
X11.1Y-4.8
X11.1Y-4.9
X11.1Y-5.0
X11.1Y-5.1
X11.1Y-5.2
X11.1Y-5.3
X11.1Y-5.4
X11.1Y-5.5
X11.1Y-5.6
X11.1Y-5.7
X11.1Y-5.8
X11.1Y-5.9
X11.1Y-6.0
X11.1Y-6.1
X11.1Y-6.2
X11.1Y-6.3
X11.1Y-6.4
X11.2Y-3.5
X11.2Y-3.6
X11.2Y-3.7
X11.2Y-3.8
X11.2Y-3.9
X11.2Y-4.0
X11.2Y-4.1
X11.2Y-4.2
X11.2Y-4.3
X11.2Y-4.4
X11.2Y-4.5
X11.2Y-4.6
X11.2Y-4.7
X11.2Y-4.8
X11.2Y-4.9
X11.2Y-5.0
X11.2Y-5.1
X11.2Y-5.2
X11.2Y-5.3
X11.2Y-5.4
X11.2Y-5.5
X11.2Y-5.6
X11.2Y-5.7
X11.2Y-5.8
X11.2Y-5.9
X11.2Y-6.0
X11.2Y-6.1
X11.2Y-6.2
X11.2Y-6.3
X11.2Y-6.4
X11.3Y-3.35
X11.3Y-3.5
X11.3Y-3.6
X11.3Y-3.7
X11.3Y-3.8
X11.3Y-3.9
X11.3Y-4.0
X11.3Y-4.1
X11.3Y-4.2
X11.3Y-4.3
X11.3Y-4.4
X11.3Y-4.5
X11.3Y-4.6
X11.3Y-4.7
X11.3Y-4.8
X11.3Y-4.9
X11.3Y-5.0
X11.3Y-5.1
X11.3Y-5.2
X11.3Y-5.3
X11.3Y-5.4
X11.3Y-5.5
X11.3Y-5.6
X11.3Y-5.7
X11.3Y-5.8
X11.3Y-5.9
X11.3Y-6.0
X11.3Y-6.1
X11.3Y-6.2
X11.3Y-6.3
X11.3Y-6.4
X11.4Y-3.35
X11.4Y-3.5
X11.4Y-3.6
X11.4Y-3.7
X11.4Y-3.8
X11.4Y-3.9
X11.4Y-4.0
X11.4Y-4.1
X11.4Y-4.2
X11.4Y-4.3
X11.4Y-4.4
X11.4Y-4.5
X11.4Y-4.6
X11.4Y-4.7
X11.4Y-4.8
X11.4Y-4.9
X11.4Y-5.0
X11.4Y-5.1
X11.4Y-5.2
X11.4Y-5.3
X11.4Y-5.4
X11.4Y-5.5
X11.4Y-5.6
X11.4Y-5.7
X11.4Y-5.8
X11.4Y-5.9
X11.4Y-6.0
X11.4Y-6.1
X11.4Y-6.2
X11.4Y-6.3
X11.4Y-6.4
X11.5Y-3.35
X11.5Y-3.5
X11.5Y-3.6
X11.5Y-3.7
X11.5Y-3.8
X11.5Y-3.9
X11.5Y-4.0
X11.5Y-4.1
X11.5Y-4.2
X11.5Y-4.3
X11.5Y-4.4
X11.5Y-4.5
X11.5Y-4.6
X11.5Y-4.7
X11.5Y-4.8
X11.5Y-4.9
X11.5Y-5.0
X11.5Y-5.1
X11.5Y-5.2
X11.5Y-5.3
X11.5Y-5.4
X11.5Y-5.5
X11.5Y-5.6
X11.5Y-5.7
X11.5Y-5.8
X11.5Y-5.9
X11.5Y-6.0
X11.5Y-6.1
X11.5Y-6.2
X11.5Y-6.3
X11.5Y-6.4
X11.6Y-3.35
X11.6Y-3.5
X11.6Y-3.6
X11.6Y-3.7
X11.6Y-3.8
X11.6Y-3.9
X11.6Y-4.0
X11.6Y-4.1
X11.6Y-4.2
X11.6Y-4.3
X11.6Y-4.4
X11.6Y-4.5
X11.6Y-4.6
X11.6Y-4.7
X11.6Y-4.8
X11.6Y-4.9
X11.6Y-5.0
X11.6Y-5.1
X11.6Y-5.2
X11.6Y-5.3
X11.6Y-5.4
X11.6Y-5.5
X11.6Y-5.6
X11.6Y-5.7
X11.6Y-5.8
X11.6Y-5.9
X11.6Y-6.0
X11.6Y-6.1
X11.6Y-6.2
X11.6Y-6.3
X11.6Y-6.4
X11.632Y-8.749
X11.633Y-8.284
X11.633Y-8.384
X11.633Y-8.484
X11.633Y-8.584
X11.67Y-6.56
X11.67Y-6.76
X11.67Y-6.86
X11.67Y-6.96
X11.67Y-7.06
X11.67Y-7.43
X11.67Y-7.53
X11.67Y-7.63
X11.67Y-7.73
X11.67Y-7.83
X11.67Y-7.93
X11.7Y-3.35
X11.7Y-3.5
X11.7Y-3.6
X11.7Y-3.7
X11.7Y-3.8
X11.7Y-3.9
X11.7Y-4.0
X11.7Y-4.1
X11.7Y-4.2
X11.7Y-4.3
X11.7Y-4.4
X11.7Y-4.5
X11.7Y-4.6
X11.7Y-4.7
X11.7Y-4.8
X11.7Y-4.9
X11.7Y-5.0
X11.7Y-5.1
X11.7Y-5.2
X11.7Y-5.3
X11.7Y-5.4
X11.7Y-5.5
X11.7Y-5.6
X11.7Y-5.7
X11.7Y-5.8
X11.7Y-5.9
X11.7Y-6.0
X11.7Y-6.1
X11.7Y-6.2
X11.7Y-6.3
X11.7Y-6.4
X11.732Y-8.749
X11.77Y-6.56
X11.8Y-3.35
X11.8Y-3.5
X11.8Y-3.6
X11.8Y-3.7
X11.8Y-3.8
X11.8Y-3.9
X11.8Y-4.0
X11.8Y-4.1
X11.8Y-4.2
X11.8Y-4.3
X11.8Y-4.4
X11.8Y-4.5
X11.8Y-4.6
X11.8Y-4.7
X11.8Y-4.8
X11.8Y-4.9
X11.8Y-5.0
X11.8Y-5.1
X11.8Y-5.2
X11.8Y-5.3
X11.8Y-5.4
X11.8Y-5.5
X11.8Y-5.6
X11.8Y-5.7
X11.8Y-5.8
X11.8Y-5.9
X11.8Y-6.0
X11.8Y-6.1
X11.8Y-6.2
X11.8Y-6.3
X11.8Y-6.4
X11.84Y-7.27
X11.9Y-3.5
X11.9Y-3.6
X11.9Y-3.7
X11.9Y-3.8
X11.9Y-3.9
X11.9Y-4.0
X11.9Y-4.1
X11.9Y-4.2
X11.9Y-4.3
X11.9Y-4.4
X11.9Y-4.5
X11.9Y-4.6
X11.9Y-4.7
X11.9Y-4.8
X11.9Y-4.9
X11.9Y-5.0
X11.9Y-5.1
X11.9Y-5.2
X11.9Y-5.3
X11.9Y-5.4
X11.9Y-5.5
X11.9Y-5.6
X11.9Y-5.7
X11.9Y-5.8
X11.9Y-5.9
X11.9Y-6.0
X11.9Y-6.1
X11.9Y-6.2
X11.9Y-6.3
X11.9Y-6.4
X11.94Y-7.27
X11.9469Y-8.284
X11.9469Y-8.384
X11.9469Y-8.484
X11.9469Y-8.584
X12.0Y-3.01
X12.0Y-3.35
X12.0Y-3.5
X12.0Y-3.6
X12.0Y-3.7
X12.0Y-3.8
X12.0Y-3.9
X12.0Y-4.0
X12.0Y-4.1
X12.0Y-4.2
X12.0Y-4.3
X12.0Y-4.4
X12.0Y-4.5
X12.0Y-4.6
X12.0Y-4.7
X12.0Y-4.8
X12.0Y-4.9
X12.0Y-5.0
X12.0Y-5.1
X12.0Y-5.2
X12.0Y-5.3
X12.0Y-5.4
X12.0Y-5.5
X12.0Y-5.6
X12.0Y-5.7
X12.0Y-5.8
X12.0Y-5.9
X12.0Y-6.0
X12.0Y-6.1
X12.0Y-6.2
X12.0Y-6.3
X12.0Y-6.4
X12.04Y-6.76
X12.04Y-6.86
X12.04Y-6.96
X12.04Y-7.06
X12.04Y-7.43
X12.04Y-7.53
X12.04Y-7.63
X12.04Y-7.73
X12.04Y-7.83
X12.04Y-7.93
X12.1Y-3.01
X12.1Y-3.35
X12.1Y-3.5
X12.1Y-3.6
X12.1Y-3.7
X12.1Y-3.8
X12.1Y-3.9
X12.1Y-4.0
X12.1Y-4.1
X12.1Y-4.2
X12.1Y-4.3
X12.1Y-4.4
X12.1Y-4.5
X12.1Y-4.6
X12.1Y-4.7
X12.1Y-4.8
X12.1Y-4.9
X12.1Y-5.0
X12.1Y-5.1
X12.1Y-5.2
X12.1Y-5.3
X12.1Y-5.4
X12.1Y-5.5
X12.1Y-5.6
X12.1Y-5.7
X12.1Y-5.8
X12.1Y-5.9
X12.1Y-6.0
X12.1Y-6.1
X12.1Y-6.2
X12.1Y-6.3
X12.1Y-6.4
X12.2Y-3.01
X12.2Y-3.35
X12.2Y-3.5
X12.2Y-3.6
X12.2Y-3.7
X12.2Y-3.8
X12.2Y-3.9
X12.2Y-4.0
X12.2Y-4.1
X12.2Y-4.2
X12.2Y-4.3
X12.2Y-4.4
X12.2Y-4.5
X12.2Y-4.6
X12.2Y-4.7
X12.2Y-4.8
X12.2Y-4.9
X12.2Y-5.0
X12.2Y-5.1
X12.2Y-5.2
X12.2Y-5.3
X12.2Y-5.4
X12.2Y-5.5
X12.2Y-5.6
X12.2Y-5.7
X12.2Y-5.8
X12.2Y-5.9
X12.2Y-6.0
X12.2Y-6.1
X12.2Y-6.2
X12.2Y-6.3
X12.2Y-6.4
X12.2146Y-2.5216
X12.2146Y-2.62
X12.2146Y-2.7184
X12.3Y-3.35
X12.3Y-3.5
X12.3Y-3.6
X12.3Y-3.7
X12.3Y-3.8
X12.3Y-3.9
X12.3Y-4.0
X12.3Y-4.1
X12.3Y-4.2
X12.3Y-4.3
X12.3Y-4.4
X12.3Y-4.5
X12.3Y-4.6
X12.3Y-4.7
X12.3Y-4.8
X12.3Y-4.9
X12.3Y-5.0
X12.3Y-5.1
X12.3Y-5.2
X12.3Y-5.3
X12.3Y-5.4
X12.3Y-5.5
X12.3Y-5.6
X12.3Y-5.7
X12.3Y-5.8
X12.3Y-5.9
X12.3Y-6.0
X12.3Y-6.1
X12.3Y-6.2
X12.3Y-6.3
X12.3Y-6.4
X12.4Y-3.5
X12.4Y-3.6
X12.4Y-3.7
X12.4Y-3.8
X12.4Y-3.9
X12.4Y-4.0
X12.4Y-4.1
X12.4Y-4.2
X12.4Y-4.3
X12.4Y-4.4
X12.4Y-4.5
X12.4Y-4.6
X12.4Y-4.7
X12.4Y-4.8
X12.4Y-4.9
X12.4Y-5.0
X12.4Y-5.1
X12.4Y-5.2
X12.4Y-5.3
X12.4Y-5.4
X12.4Y-5.5
X12.4Y-5.6
X12.4Y-5.7
X12.4Y-5.8
X12.4Y-5.9
X12.4Y-6.0
X12.4Y-6.1
X12.4Y-6.2
X12.4Y-6.3
X12.4Y-6.4
X12.5Y-3.5
X12.5Y-3.6
X12.5Y-3.7
X12.5Y-3.8
X12.5Y-3.9
X12.5Y-4.0
X12.5Y-4.1
X12.5Y-4.2
X12.5Y-4.3
X12.5Y-4.4
X12.5Y-4.5
X12.5Y-4.6
X12.5Y-4.7
X12.5Y-4.8
X12.5Y-4.9
X12.5Y-5.0
X12.5Y-5.1
X12.5Y-5.2
X12.5Y-5.3
X12.5Y-5.4
X12.5Y-5.5
X12.5Y-5.6
X12.5Y-5.7
X12.5Y-5.8
X12.5Y-5.9
X12.5Y-6.0
X12.5Y-6.1
X12.5Y-6.2
X12.5Y-6.3
X12.5Y-6.4
T9
X5.2Y-3.3
X6.04Y-2.43
T10
X9.0241Y-7.4128
X9.0241Y-7.59
X9.0241Y-7.8128
X9.0241Y-7.99
X9.0241Y-8.2128
X9.0241Y-8.39
X9.0241Y-8.6128
X9.0241Y-8.79
X9.28Y-7.4128
X9.28Y-7.59
X9.28Y-7.8128
X9.28Y-7.99
X9.28Y-8.2128
X9.28Y-8.39
X9.28Y-8.6128
X9.28Y-8.79
X9.5241Y-7.4128
X9.5241Y-7.59
X9.5241Y-7.8128
X9.5241Y-7.99
X9.5241Y-8.2128
X9.5241Y-8.39
X9.5341Y-8.6128
X9.5341Y-8.79
X9.78Y-7.4128
X9.78Y-7.59
X9.78Y-7.8128
X9.78Y-7.99
X9.78Y-8.2128
X9.78Y-8.39
X9.79Y-8.6128
X9.79Y-8.79
X10.0241Y-7.4128
X10.0241Y-7.59
X10.0241Y-7.8128
X10.0241Y-7.99
X10.0241Y-8.6128
X10.0241Y-8.79
X10.0341Y-8.2128
X10.0341Y-8.39
X10.28Y-7.4128
X10.28Y-7.59
X10.28Y-7.8128
X10.28Y-7.99
X10.28Y-8.6128
X10.28Y-8.79
X10.29Y-8.2128
X10.29Y-8.39
X11.71Y-2.75
X11.71Y-2.85
X11.71Y-2.95
T11
X9.8155Y-2.2487
X9.8155Y-2.4987
X9.8155Y-2.7487
X10.4545Y-2.2487
X10.4545Y-2.4987
X10.4545Y-2.7487
T12
X9.3834Y-2.0073
X9.3834Y-2.2829
X10.9Y-2.5972
X10.9Y-2.92
T13
X10.8536Y-2.0898
X11.0536Y-2.0898
X12.58Y-3.11
X12.58Y-3.31
T14
X12.3177Y-6.6687
X12.3177Y-7.186
X12.3326Y-8.1546
X12.3326Y-8.627
T15
X5.15Y-2.22
X5.15Y-8.92
X5.9157Y-2.22
X6.9Y-2.22
X12.4Y-2.2
X12.45Y-8.92
T2
G00X12.4372Y-7.4499
M15
G01X12.4805Y-7.4499
M16
G05
G00X12.4372Y-7.7901
M15
G01X12.4805Y-7.7901
M16
G05
G00X12.6116Y-7.4499
M15
G01X12.6352Y-7.4499
M16
G05
G00X12.6116Y-7.7901
M15
G01X12.6352Y-7.7901
M16
G05
T4
G00X9.2968Y-2.3636
M15
G01X9.2968Y-2.3951
M16
G05
G00X9.47Y-2.0487
M15
G01X9.47Y-2.0802
M16
G05
G00X9.47Y-2.1668
M15
G01X9.47Y-2.1983
M16
G05
G00X9.47Y-2.3243
M15
G01X9.47Y-2.3557
M16
G05
T8
G00X7.3743Y-2.2835
M15
G01X7.3743Y-2.2127
M16
G05
G00X7.4846Y-2.13
M15
G01X7.5554Y-2.13
M16
G05
G00X7.52Y-2.2973
M15
G01X7.52Y-2.2461
M16
G05
G00X7.6696Y-2.2835
M15
G01X7.6696Y-2.2127
M16
G05
G00X8.0143Y-2.2835
M15
G01X8.0143Y-2.2127
M16
G05
G00X8.1246Y-2.13
M15
G01X8.1954Y-2.13
M16
G05
G00X8.16Y-2.2973
M15
G01X8.16Y-2.2461
M16
G05
G00X8.3096Y-2.2835
M15
G01X8.3096Y-2.2127
M16
G05
G00X8.6543Y-2.2818
M15
G01X8.6543Y-2.2109
M16
G05
G00X8.7646Y-2.1283
M15
G01X8.8354Y-2.1283
M16
G05
G00X8.8Y-2.2956
M15
G01X8.8Y-2.2444
M16
G05
G00X8.9496Y-2.2818
M15
G01X8.9496Y-2.2109
M16
G05
G00X11.3986Y-2.3086
M15
G01X11.3986Y-2.3873
M16
G05
G00X11.623Y-2.2298
M15
G01X11.5443Y-2.2298
M16
G05
G00X11.6328Y-2.4739
M15
G01X11.5344Y-2.4739
M16
G05
T10
G00X12.4961Y-2.431
M15
G01X12.5237Y-2.431
M16
G05
G00X12.4961Y-2.809
M15
G01X12.5237Y-2.809
M16
G05
M30
